<svg width="1442" height="98" viewBox="0 0 1442 98" fill="none" xmlns="http://www.w3.org/2000/svg">
<path d="M-0.000366211 1.00012H1442V98.0001H-0.000366211V1.00012Z" fill="url(#paint0_linear_506_152)" fill-opacity="0.75"/>
<path d="M133.464 97.8251L311.022 31.1355L471.464 97.8251H133.464Z" fill="#901918" fill-opacity="0.35"/>
<path d="M210.464 1.32508L308.964 28.8251L133.464 96.3251L210.464 1.32508Z" fill="#901918" fill-opacity="0.35"/>
<path d="M137 1.00012L209 1.00013L136.999 90.5001L137 1.00012Z" fill="#901918" fill-opacity="0.35"/>
<path d="M0.464851 0.825075L75.9645 0.825074L0.464729 94.8251L0.464851 0.825075Z" fill="#901918" fill-opacity="0.35"/>
<path d="M80 98H0.5L77.1365 2.10969L80 98Z" fill="#901918" fill-opacity="0.35"/>
<path d="M136 91L131.5 97H81L78 0.999984L136 0.999981V91Z" fill="#901918" fill-opacity="0.35"/>
<path d="M466.465 0.824796L473.965 23.3249L310.964 27.3248L216.964 0.824789L466.465 0.824796Z" fill="#901918" fill-opacity="0.35"/>
<path d="M312.464 28.8251L473.967 24.4025L620.964 97.8251H474.964L312.464 28.8251Z" fill="#901918" fill-opacity="0.35"/>
<path d="M467.464 0.825173L601.464 0.825174L641.964 52.8252L675.964 97.8252L623.964 97.8252L474.964 23.3252L467.464 0.825173Z" fill="#901918" fill-opacity="0.35"/>
<path d="M603.5 1.00012L774.5 1.00012L773.5 60.5001L774 98.0001H679L629 33.5001L603.5 1.00012Z" fill="#901918" fill-opacity="0.35"/>
<path d="M957.965 97.8243L1137.53 28.7263L1300.47 97.8243H957.965Z" fill="#901918" fill-opacity="0.35"/>
<path d="M1036.97 0.82428L1135.47 26.416L955.464 97.8248H900.465L955.464 0.824281L1036.97 0.82428Z" fill="#901918" fill-opacity="0.35"/>
<path d="M953.5 0.99994L898 97.9999L776.5 97.9999V0.999931L953.5 0.99994Z" fill="#901918" fill-opacity="0.35"/>
<path d="M1138.97 26.416L1303.47 21.8243L1439.97 97.8243L1304.47 97.8243L1138.97 26.416Z" fill="#901918" fill-opacity="0.35"/>
<path d="M1304.96 20.3243L1440.46 0.824281L1442 4.50006L1442 98.0001L1440.46 97.3243L1304.96 20.3243Z" fill="#901918" fill-opacity="0.35"/>
<path d="M1045.97 0.824281L1213.97 0.824281L1301.47 20.3243L1135.97 24.8243L1045.97 0.824281Z" fill="#901918" fill-opacity="0.35"/>
<path d="M1221 1L1422.5 1L1303 19L1221 1Z" fill="#901918" fill-opacity="0.35"/>
<defs>
<linearGradient id="paint0_linear_506_152" x1="1352.97" y1="63.9886" x2="-47.6951" y2="-659.81" gradientUnits="userSpaceOnUse">
<stop stop-color="#C00200"/>
<stop offset="1" stop-color="#E20822"/>
</linearGradient>
</defs>
</svg>
