<svg width="162" height="144" viewBox="0 0 162 144" fill="none" xmlns="http://www.w3.org/2000/svg">
<path d="M81 71.1C85.8463 71.0998 90.5819 72.5486 94.5985 75.2604C98.6151 77.9721 101.729 81.8229 103.54 86.318C105.352 90.8131 105.777 95.7471 104.763 100.486C103.749 105.225 101.341 109.552 97.848 112.912L82.377 127.8H105.3V144H56.7L56.6919 130.036L86.6133 101.24C87.5787 100.312 88.299 99.1592 88.7097 97.8846C89.1204 96.6099 89.2086 95.2534 88.9666 93.9363C88.7245 92.6192 88.1596 91.3827 87.3226 90.3374C86.4855 89.2921 85.4023 88.4707 84.17 87.9466C82.9377 87.4225 81.5946 87.2121 80.2611 87.3343C78.9275 87.4565 77.6451 87.9073 76.5285 88.6466C75.4119 89.3859 74.496 90.3904 73.8627 91.5704C73.2295 92.7504 72.8988 94.069 72.9 95.4081H56.7C56.6989 92.2163 57.3267 89.0556 58.5474 86.1064C59.7681 83.1573 61.5579 80.4775 63.8144 78.2202C66.071 75.9629 68.7502 74.1722 71.6989 72.9505C74.6477 71.7288 77.8082 71.1 81 71.1ZM129.6 71.1V103.5H145.8V71.1H162V144H145.8V119.7H113.4V71.1H129.6ZM16.2 63C16.19 72.7167 18.3694 82.3107 22.5763 91.0695C26.7832 99.8282 32.9095 107.527 40.5 113.593V133.162C28.1822 126.054 17.9538 115.827 10.8441 103.511C3.73438 91.1937 -0.00576275 77.2215 6.66467e-06 63H16.2ZM81 -18C122.999 -18 157.537 13.9707 161.595 54.9H145.298C143.653 41.8385 138.069 29.5876 129.289 19.778C120.51 9.96828 108.951 3.06501 96.151 -0.0131397C83.3511 -3.09129 69.9174 -2.19833 57.6376 2.54691C45.3578 7.29214 34.8143 15.6646 27.4104 26.55H48.6V42.75H6.66467e-06V-5.84998H16.2V14.4C23.7384 4.33313 33.5205 -3.83704 44.7693 -9.46143C56.0181 -15.0858 68.4235 -18.0094 81 -18Z" fill="#E7057E" fill-opacity="0.05"/>
</svg>
