<svg width="43" height="43" viewBox="0 0 43 43" fill="none" xmlns="http://www.w3.org/2000/svg">
<path d="M39.0909 13.6804C40.1277 13.6804 41.122 14.0923 41.8551 14.8254C42.5882 15.5585 43 16.5529 43 17.5897V25.4082C43 26.445 42.5882 27.4394 41.8551 28.1725C41.122 28.9056 40.1277 29.3175 39.0909 29.3175H37.0152C36.5387 33.0964 34.6996 36.5715 31.843 39.0907C28.9864 41.6099 25.3086 42.9999 21.5 43V39.0907C24.6103 39.0907 27.5931 37.8551 29.7924 35.6557C31.9917 33.4563 33.2273 30.4733 33.2273 27.3629V15.635C33.2273 12.5246 31.9917 9.54158 29.7924 7.34219C27.5931 5.14279 24.6103 3.90718 21.5 3.90718C18.3897 3.90718 15.4069 5.14279 13.2076 7.34219C11.0083 9.54158 9.77273 12.5246 9.77273 15.635V29.3175H3.90909C2.87234 29.3175 1.87804 28.9056 1.14495 28.1725C0.41185 27.4394 0 26.445 0 25.4082V17.5897C0 16.5529 0.41185 15.5585 1.14495 14.8254C1.87804 14.0923 2.87234 13.6804 3.90909 13.6804H5.98482C6.46179 9.90186 8.30111 6.42724 11.1577 3.9085C14.0142 1.38976 17.6917 0 21.5 0C25.3083 0 28.9858 1.38976 31.8423 3.9085C34.6989 6.42724 36.5382 9.90186 37.0152 13.6804H39.0909ZM13.2127 28.8973L15.2845 25.5822C17.1474 26.7492 19.3019 27.3664 21.5 27.3629C23.6981 27.3664 25.8526 26.7492 27.7155 25.5822L29.7873 28.8973C27.3036 30.4534 24.4309 31.2767 21.5 31.2722C18.5691 31.2767 15.6964 30.4534 13.2127 28.8973Z" fill="#E7057E"/>
</svg>
