<svg width="33" height="11" viewBox="0 0 33 11" fill="none" xmlns="http://www.w3.org/2000/svg">
<path d="M17.0668 3.51657C17.048 5.04892 18.3898 5.90398 19.4005 6.41241C20.439 6.93401 20.7878 7.26853 20.7837 7.73505C20.776 8.44893 19.9554 8.76404 19.1875 8.77622C17.8478 8.79772 17.0687 8.40289 16.4495 8.1043L15.9668 10.4354C16.5882 10.7309 17.7387 10.9887 18.9317 11C21.7322 11 23.5643 9.57305 23.5743 7.36061C23.5852 4.55273 19.8118 4.39731 19.8375 3.14227C19.8464 2.76171 20.1982 2.3556 20.969 2.25234C21.3506 2.20019 22.4039 2.16026 23.5981 2.72792L24.0668 0.472504C23.4246 0.231129 22.5992 0 21.5716 0C18.9357 0 17.0817 1.44639 17.0668 3.51657ZM28.5706 0.194271C28.0591 0.194271 27.6282 0.502177 27.4359 0.974685L23.4356 10.8343H26.234L26.7908 9.24567H30.2105L30.5335 10.8343H33L30.8476 0.194271H28.5706ZM28.962 3.06855L29.7696 7.06401H27.5579L28.962 3.06855ZM13.6738 0.194404L11.468 10.8342H14.1347L16.3395 0.194138L13.6738 0.194404ZM9.72891 0.194138L6.95333 7.43632L5.83056 1.2786C5.69881 0.591197 5.17855 0.194271 4.60079 0.194271H0.0635508L0 0.503242C0.93148 0.711883 1.9898 1.0484 2.63098 1.40847C3.02337 1.62841 3.13525 1.82069 3.26417 2.34336L5.39073 10.8343H8.20875L12.5292 0.194271L9.72891 0.194138Z" fill="white"/>
</svg>
