<svg width="23" height="23" viewBox="0 0 23 23" fill="none" xmlns="http://www.w3.org/2000/svg">
<path d="M1.00361 13.0662C0.9916 13.2186 1.00965 13.372 1.0566 13.5167C1.10356 13.6614 1.17841 13.7942 1.27641 13.9067C1.3744 14.0192 1.49342 14.109 1.62592 14.1703C1.75843 14.2317 1.90153 14.2633 2.04619 14.2632H4.04511C4.32232 14.2632 4.58816 14.1467 4.78418 13.9394C4.98019 13.7322 5.09031 13.451 5.09031 13.1579V2.10526C5.09031 1.81213 4.98019 1.531 4.78418 1.32372C4.58816 1.11645 4.32232 1 4.04511 1H2.91631C2.65413 1.00001 2.40154 1.10422 2.20861 1.29196C2.01569 1.47969 1.89653 1.73724 1.87477 2.01353L1.00413 13.0662H1.00361ZM8.22588 12.9507C8.22588 13.4127 8.49763 13.826 8.89219 14.0228C9.75395 14.4527 11.2219 15.3165 11.884 16.4842C12.7374 17.9896 12.8984 20.7091 12.9245 21.3319C12.9282 21.4192 12.9261 21.5065 12.9371 21.5927C13.0787 22.672 15.0484 21.4114 15.8035 20.0785C16.2138 19.3557 16.266 18.4057 16.2232 17.6635C16.1767 16.8705 15.9566 16.1034 15.7408 15.3419L15.2809 13.7188H20.9547C21.1162 13.7188 21.2755 13.6793 21.4201 13.6032C21.5647 13.5272 21.6907 13.4168 21.7882 13.2806C21.8856 13.1445 21.9519 12.9863 21.9819 12.8185C22.0118 12.6507 22.0046 12.4778 21.9607 12.3135L19.1544 1.80463C19.0925 1.57286 18.9606 1.36883 18.7789 1.22359C18.5972 1.07834 18.3756 0.999831 18.1479 1H9.27107C8.99387 1 8.72802 1.11645 8.53201 1.32372C8.336 1.531 8.22588 1.81213 8.22588 2.10526V12.9507Z" stroke="#898989" stroke-width="2" stroke-linecap="round" stroke-linejoin="round"/>
</svg>
