<svg width="25" height="17" viewBox="0 0 25 17" fill="none" xmlns="http://www.w3.org/2000/svg">
<path d="M22.568 2.37933C21.3888 2.04545 20.1352 2.06913 19.0382 2.44595L18.9932 2.46132L15.7109 4.04691L6.13216 0.176306C5.71401 0.0055418 5.25708 -0.0424254 4.81342 0.0378682C4.36976 0.118162 3.9572 0.323488 3.62274 0.63046L2.34038 1.7988C2.2051 1.92207 2.09886 2.07473 2.02956 2.24544C1.96026 2.41615 1.92967 2.60053 1.94006 2.78491C1.95045 2.96928 2.00155 3.1489 2.08957 3.31046C2.1776 3.47201 2.30028 3.61134 2.44853 3.71811L8.38626 7.99511L6.10867 9.20778L4.30492 7.53265C3.96004 7.213 3.53169 7.00137 3.07134 6.92318C2.61099 6.845 2.13822 6.9036 1.70984 7.09193L0.728928 7.5242C0.575614 7.59173 0.437721 7.69079 0.323936 7.81516C0.210151 7.93953 0.122939 8.0865 0.0677961 8.24682C0.0126528 8.40714 -0.00922711 8.57733 0.00353469 8.74667C0.0162965 8.91601 0.0634234 9.08082 0.141947 9.23073L3.81353 16.2428L23.8089 6.22523C25.0062 5.65244 25.1521 4.73675 24.8889 4.06982C24.597 3.33043 23.751 2.71428 22.568 2.37933ZM23.1176 4.74352L23.1101 4.74711L4.50306 14.069L1.77155 8.85202L2.35137 8.59645C2.49417 8.53366 2.65176 8.51412 2.80522 8.54019C2.95868 8.56625 3.10146 8.63681 3.21641 8.74337L5.85516 11.194L11.4683 8.20533L3.79356 2.67707L4.69965 1.85158C4.81114 1.74927 4.94866 1.68083 5.09654 1.65407C5.24442 1.62731 5.39672 1.64329 5.53611 1.7002L15.7684 5.83488L19.5977 3.98511C20.377 3.72841 21.305 3.72042 22.152 3.96394C22.8495 4.16453 23.22 4.45592 23.3456 4.60874C23.2746 4.66195 23.1981 4.70704 23.1176 4.74352Z" fill="#901918"/>
</svg>
