<svg width="26" height="20" viewBox="0 0 26 20" fill="none" xmlns="http://www.w3.org/2000/svg">
<path d="M1.63636 20C1.31439 20 1.0447 19.872 0.827273 19.616C0.609091 19.3609 0.5 19.0444 0.5 18.6667V1.33333C0.5 0.955556 0.609091 0.638667 0.827273 0.382667C1.0447 0.127556 1.31439 0 1.63636 0C1.95833 0 2.22841 0.127556 2.44659 0.382667C2.66402 0.638667 2.77273 0.955556 2.77273 1.33333V13.3333H11.8636V5.33333C11.8636 4.6 12.0864 3.972 12.5318 3.44933C12.9765 2.92756 13.5114 2.66667 14.1364 2.66667H20.9545C22.2045 2.66667 23.2746 3.18889 24.1648 4.23333C25.0549 5.27778 25.5 6.53333 25.5 8V18.6667C25.5 19.0444 25.3909 19.3609 25.1727 19.616C24.9553 19.872 24.6856 20 24.3636 20C24.0417 20 23.772 19.872 23.5545 19.616C23.3364 19.3609 23.2273 19.0444 23.2273 18.6667V16H2.77273V18.6667C2.77273 19.0444 2.66402 19.3609 2.44659 19.616C2.22841 19.872 1.95833 20 1.63636 20ZM7.31818 12C6.37121 12 5.56629 11.6111 4.90341 10.8333C4.24053 10.0556 3.90909 9.11111 3.90909 8C3.90909 6.88889 4.24053 5.94444 4.90341 5.16667C5.56629 4.38889 6.37121 4 7.31818 4C8.26515 4 9.07008 4.38889 9.73295 5.16667C10.3958 5.94444 10.7273 6.88889 10.7273 8C10.7273 9.11111 10.3958 10.0556 9.73295 10.8333C9.07008 11.6111 8.26515 12 7.31818 12ZM14.1364 13.3333H23.2273V8C23.2273 7.26667 23.0049 6.63867 22.5602 6.116C22.1148 5.59422 21.5795 5.33333 20.9545 5.33333H14.1364V13.3333ZM7.31818 9.33333C7.64015 9.33333 7.91023 9.20533 8.12841 8.94933C8.34583 8.69422 8.45455 8.37778 8.45455 8C8.45455 7.62222 8.34583 7.30533 8.12841 7.04933C7.91023 6.79422 7.64015 6.66667 7.31818 6.66667C6.99621 6.66667 6.72614 6.79422 6.50795 7.04933C6.29053 7.30533 6.18182 7.62222 6.18182 8C6.18182 8.37778 6.29053 8.69422 6.50795 8.94933C6.72614 9.20533 6.99621 9.33333 7.31818 9.33333Z" fill="#898989"/>
</svg>
