<svg width="33" height="28" viewBox="0 0 33 28" fill="none" xmlns="http://www.w3.org/2000/svg">
<path d="M18.8571 0C15.1062 0 11.5089 1.47499 8.85663 4.1005C6.20433 6.72601 4.71429 10.287 4.71429 14H0L6.11286 20.0511L6.22286 20.2689L12.5714 14H7.85714C7.85714 7.98 12.7757 3.11111 18.8571 3.11111C24.9386 3.11111 29.8571 7.98 29.8571 14C29.8571 20.02 24.9386 24.8889 18.8571 24.8889C15.8243 24.8889 13.0743 23.66 11.0943 21.6844L8.86286 23.8933C10.1725 25.1969 11.7299 26.2309 13.4452 26.9358C15.1606 27.6406 16.9999 28.0023 18.8571 28C22.6081 28 26.2054 26.525 28.8577 23.8995C31.51 21.274 33 17.713 33 14C33 10.287 31.51 6.72601 28.8577 4.1005C26.2054 1.47499 22.6081 5.53284e-08 18.8571 0ZM17.2857 7.77777V15.5555L24.0114 19.5067L25.1429 17.6244L19.6429 14.3889V7.77777H17.2857Z" fill="#901918"/>
</svg>
