<svg width="22" height="35" viewBox="0 0 22 35" fill="none" xmlns="http://www.w3.org/2000/svg">
<path d="M2.33213 0L0.0182654 12.8333C-0.319559 14.7117 4.14158 15.589 4.06753 17.5L3.48907 32.6667C3.40114 35 5.80293 35 5.80293 35C5.80293 35 8.20473 35 8.1168 32.6667L7.53833 17.5C7.4666 15.5913 11.5483 14.7467 11.5876 12.8333L9.27373 0H8.1168L8.69527 9.33333L6.95987 10.5L6.3814 0H5.22447L4.646 10.5L2.9106 9.33333L3.48907 0H2.33213ZM22 0C20.297 0 17.4556 1.52833 16.3195 3.81967C15.3708 5.537 15.0584 9.37533 15.0584 11.6667V17.5C15.0584 19.4087 17.5805 19.8333 18.5292 19.8333L17.3723 32.6667C17.164 34.9907 19.6861 35 19.6861 35C19.6861 35 22 35 22 32.6667V0Z" fill="#E7057E"/>
</svg>
