<svg width="15" height="21" viewBox="0 0 15 21" fill="none" xmlns="http://www.w3.org/2000/svg">
<path fill-rule="evenodd" clip-rule="evenodd" d="M9.78458 0.399414C10.2854 0.399255 10.7678 0.589075 11.135 0.930821C11.5022 1.27257 11.7271 1.74098 11.7647 2.24217L11.7697 2.39158V4.38374H12.7622C13.263 4.38358 13.7454 4.5734 14.1126 4.91515C14.4798 5.2569 14.7047 5.72531 14.7423 6.22649L14.7473 6.37591V17.3328C14.7473 17.8612 14.5381 18.3679 14.1659 18.7415C13.7936 19.1151 13.2887 19.325 12.7622 19.325C12.7619 19.5789 12.665 19.823 12.4914 20.0077C12.3177 20.1923 12.0804 20.3034 11.8278 20.3182C11.5753 20.3331 11.3266 20.2507 11.1326 20.0877C10.9386 19.9248 10.8139 19.6936 10.7841 19.4415L10.7771 19.325H4.82189C4.82189 19.5892 4.71732 19.8425 4.53119 20.0293C4.34505 20.2161 4.09259 20.3211 3.82936 20.3211C3.56612 20.3211 3.31366 20.2161 3.12753 20.0293C2.94139 19.8425 2.83682 19.5892 2.83682 19.325C2.33601 19.3251 1.85365 19.1353 1.48643 18.7936C1.11921 18.4518 0.894269 17.9834 0.856709 17.4822L0.851746 17.3328V6.37591C0.851587 5.87331 1.04073 5.38922 1.38126 5.02069C1.72179 4.65216 2.18854 4.42642 2.68794 4.38872L2.83682 4.38374H3.82936V2.39158C3.8292 1.88898 4.01834 1.40489 4.35887 1.03636C4.6994 0.667829 5.16615 0.44209 5.66555 0.404395L5.81443 0.399414H9.78458ZM5.81443 8.36807C5.5512 8.36807 5.29874 8.47302 5.1126 8.65982C4.92647 8.84662 4.82189 9.09998 4.82189 9.36415V14.3446C4.82189 14.6087 4.92647 14.8621 5.1126 15.0489C5.29874 15.2357 5.5512 15.3406 5.81443 15.3406C6.07767 15.3406 6.33012 15.2357 6.51626 15.0489C6.7024 14.8621 6.80697 14.6087 6.80697 14.3446V9.36415C6.80697 9.09998 6.7024 8.84662 6.51626 8.65982C6.33012 8.47302 6.07767 8.36807 5.81443 8.36807ZM9.78458 8.36807C9.54148 8.3681 9.30684 8.45767 9.12517 8.6198C8.9435 8.78192 8.82744 9.00531 8.79899 9.24761L8.79204 9.36415V14.3446C8.79232 14.5984 8.88919 14.8426 9.06286 15.0272C9.23652 15.2119 9.47387 15.3229 9.72641 15.3378C9.97896 15.3527 10.2276 15.2702 10.4216 15.1073C10.6156 14.9444 10.7403 14.7132 10.7702 14.4611L10.7771 14.3446V9.36415C10.7771 9.09998 10.6725 8.84662 10.4864 8.65982C10.3003 8.47302 10.0478 8.36807 9.78458 8.36807ZM9.78458 2.39158H5.81443V4.38374H9.78458V2.39158Z" fill="#901918"/>
</svg>
