<svg width="9" height="8" viewBox="0 0 9 8" fill="none" xmlns="http://www.w3.org/2000/svg">
<path d="M8.30769 1.59463H6.54664C6.46333 1.14829 6.2123 0.743523 5.83784 0.451761C5.46337 0.159999 4.98955 0 4.5 0C4.01045 0 3.53663 0.159999 3.16216 0.451761C2.7877 0.743523 2.53667 1.14829 2.45337 1.59463H0.692308C0.508696 1.59463 0.332605 1.66212 0.202772 1.78224C0.0729393 1.90236 0 2.06529 0 2.23517V7.35946C0 7.52934 0.0729393 7.69227 0.202772 7.81239C0.332605 7.93252 0.508696 8 0.692308 8H8.30769C8.4913 8 8.66739 7.93252 8.79723 7.81239C8.92706 7.69227 9 7.52934 9 7.35946V2.23517C9 2.06529 8.92706 1.90236 8.79723 1.78224C8.66739 1.66212 8.4913 1.59463 8.30769 1.59463ZM4.5 0.633826C4.80689 0.634368 5.10495 0.728937 5.34762 0.90276C5.59029 1.07658 5.76391 1.31987 5.84135 1.59463H3.15865C3.23609 1.31987 3.40971 1.07658 3.65238 0.90276C3.89505 0.728937 4.19311 0.634368 4.5 0.633826Z" fill="#252525"/>
</svg>
