<svg width="25" height="29" viewBox="0 0 25 29" fill="none" xmlns="http://www.w3.org/2000/svg">
<path d="M9.14621 7.00114e-05L5.49045 6.66917L12.1763 10.3159L13.3892 8.1033L10.41 6.47829C11.0971 6.33311 11.7976 6.26012 12.5 6.2605C18.0223 6.2605 22.4719 10.699 22.4719 16.2076C22.4719 21.7162 18.0223 26.1547 12.5 26.1547C6.97767 26.1547 2.52809 21.7162 2.52809 16.2076C2.52809 15.0546 2.72367 13.9487 3.08258 12.9203L0.812921 11.7883C0.288342 13.1629 0 14.6523 0 16.2076C0 23.079 5.61145 28.6765 12.5 28.6765C19.3886 28.6765 25 23.079 25 16.2076C25 9.33618 19.3886 3.7387 12.5 3.7387C11.5798 3.7387 10.6829 3.83958 9.81882 4.02927L11.3643 1.20976L9.14621 0V7.00114e-05ZM16.4685 9.13311L11.868 16.0167V24.0532H13.132V16.3985L17.5202 9.83249L16.4685 9.13311Z" fill="#901918"/>
</svg>
