<svg width="36" height="36" viewBox="0 0 36 36" fill="none" xmlns="http://www.w3.org/2000/svg">
<path d="M28.54 13H7.45996C7.19474 13 6.94039 12.8946 6.75285 12.7071C6.56532 12.5196 6.45996 12.2652 6.45996 12C6.45996 11.7348 6.56532 11.4804 6.75285 11.2929C6.94039 11.1054 7.19474 11 7.45996 11H28.54C28.8052 11 29.0595 11.1054 29.2471 11.2929C29.4346 11.4804 29.54 11.7348 29.54 12C29.54 12.2652 29.4346 12.5196 29.2471 12.7071C29.0595 12.8946 28.8052 13 28.54 13Z" fill="white"/>
<path d="M21.17 19H7.45996C7.19474 19 6.94039 18.8946 6.75285 18.7071C6.56532 18.5196 6.45996 18.2652 6.45996 18C6.45996 17.7348 6.56532 17.4804 6.75285 17.2929C6.94039 17.1054 7.19474 17 7.45996 17H21.17C21.4352 17 21.6895 17.1054 21.8771 17.2929C22.0646 17.4804 22.17 17.7348 22.17 18C22.17 18.2652 22.0646 18.5196 21.8771 18.7071C21.6895 18.8946 21.4352 19 21.17 19Z" fill="white"/>
<path d="M13.74 25H7.45996C7.19474 25 6.94039 24.8946 6.75285 24.7071C6.56532 24.5196 6.45996 24.2652 6.45996 24C6.45996 23.7348 6.56532 23.4804 6.75285 23.2929C6.94039 23.1054 7.19474 23 7.45996 23H13.74C14.0052 23 14.2595 23.1054 14.4471 23.2929C14.6346 23.4804 14.74 23.7348 14.74 24C14.74 24.2652 14.6346 24.5196 14.4471 24.7071C14.2595 24.8946 14.0052 25 13.74 25Z" fill="white"/>
</svg>
