<svg width="23" height="23" viewBox="0 0 23 23" fill="none" xmlns="http://www.w3.org/2000/svg">
<path d="M11.4118 0.664508C11.5701 0.481788 11.766 0.329845 11.9883 0.217476C12.2106 0.105107 12.4549 0.0345434 12.7069 0.009869C12.959 -0.0148054 13.2138 0.00689991 13.4567 0.0737286C13.6996 0.140557 13.9257 0.251182 14.122 0.399199L20.3742 5.11109C20.718 5.37016 20.9537 5.73132 21.0411 6.13293C21.1285 6.53453 21.0621 6.95168 20.8533 7.31315C20.3067 7.15899 19.7382 7.0809 19.1667 7.08145H18.5917L19.1628 6.48008L15.87 3.99856L13.1541 7.08322H10.6835L14.3846 2.88072L12.9087 1.76819L8.31258 7.08145H5.85925L11.4118 0.664508ZM16.2917 15.9251C16.0375 15.9251 15.7937 16.0183 15.614 16.1841C15.4343 16.35 15.3333 16.5749 15.3333 16.8095C15.3333 17.044 15.4343 17.2689 15.614 17.4348C15.7937 17.6006 16.0375 17.6938 16.2917 17.6938H18.2083C18.4625 17.6938 18.7063 17.6006 18.886 17.4348C19.0657 17.2689 19.1667 17.044 19.1667 16.8095C19.1667 16.5749 19.0657 16.35 18.886 16.1841C18.7063 16.0183 18.4625 15.9251 18.2083 15.9251H16.2917ZM1.91667 7.96582C1.91667 7.73127 2.01763 7.50633 2.19736 7.34048C2.37708 7.17463 2.62083 7.08145 2.875 7.08145H3.9445L5.46825 5.31272H2.875C2.1125 5.31272 1.38124 5.59225 0.842068 6.0898C0.302901 6.58735 0 7.26217 0 7.96582V18.5782C0 19.7509 0.504835 20.8756 1.40345 21.7049C2.30206 22.5341 3.52084 23 4.79167 23H19.1667C20.1833 23 21.1584 22.6273 21.8772 21.9639C22.5961 21.3005 23 20.4007 23 19.4625V12.3876C23 11.4494 22.5961 10.5497 21.8772 9.88628C21.1584 9.22287 20.1833 8.85018 19.1667 8.85018H2.875C2.62083 8.85018 2.37708 8.757 2.19736 8.59116C2.01763 8.4253 1.91667 8.20036 1.91667 7.96582ZM1.91667 18.5782V10.4686C2.21567 10.5658 2.53958 10.6189 2.875 10.6189H19.1667C19.675 10.6189 20.1625 10.8053 20.522 11.137C20.8814 11.4687 21.0833 11.9185 21.0833 12.3876V19.4625C21.0833 19.9316 20.8814 20.3815 20.522 20.7132C20.1625 21.0449 19.675 21.2313 19.1667 21.2313H4.79167C4.02917 21.2313 3.2979 20.9518 2.75873 20.4542C2.21957 19.9566 1.91667 19.2818 1.91667 18.5782Z" fill="#898989"/>
</svg>
