<svg width="25" height="32" viewBox="0 0 25 32" fill="none" xmlns="http://www.w3.org/2000/svg">
<path d="M7.0652 4.96558H3.80433C2.93949 4.96558 2.11008 5.31434 1.49854 5.93515C0.887012 6.55596 0.543457 7.39796 0.543457 8.27592V28.138C0.543457 29.0159 0.887012 29.8579 1.49854 30.4788C2.11008 31.0996 2.93949 31.4483 3.80433 31.4483H20.1087C20.9735 31.4483 21.8029 31.0996 22.4145 30.4788C23.026 29.8579 23.3695 29.0159 23.3695 28.138V8.27592C23.3695 7.39796 23.026 6.55596 22.4145 5.93515C21.8029 5.31434 20.9735 4.96558 20.1087 4.96558H16.8478" stroke="#901918" stroke-width="2" stroke-linecap="round" stroke-linejoin="round"/>
<path d="M13.5869 1.65527H10.3261C8.52513 1.65527 7.06519 3.13737 7.06519 4.96562C7.06519 6.79387 8.52513 8.27596 10.3261 8.27596H13.5869C15.3879 8.27596 16.8478 6.79387 16.8478 4.96562C16.8478 3.13737 15.3879 1.65527 13.5869 1.65527Z" stroke="#901918" stroke-width="2" stroke-linecap="round" stroke-linejoin="round"/>
<path d="M8.69562 19.8621H15.2174M11.9565 16.5518V23.1724" stroke="#901918" stroke-width="2" stroke-linecap="round" stroke-linejoin="round"/>
</svg>
