<svg width="33" height="26" viewBox="0 0 33 26" fill="none" xmlns="http://www.w3.org/2000/svg">
<path d="M29.6232 9.6187L24.1639 1.81997L26.7635 0L32.2212 7.79873L29.6232 9.6187ZM26.6351 13.649L23.907 9.74722L10.9138 18.8486L13.6419 22.7472L11.0439 24.5688L3.76694 14.1694L6.36494 12.3494L9.093 16.2496L22.0862 7.14817L19.3581 3.24802L21.9561 1.42805L29.2331 11.8258L26.6351 13.6474V13.649ZM30.402 5.1981L33 3.37813L31.1808 0.77908L28.5828 2.59905L30.402 5.1981ZM8.83606 24.18L3.37677 16.3813L0.778766 18.2013L6.23647 26L8.83606 24.18ZM4.41723 23.4009L1.81923 25.2209L0 22.6219L2.598 20.8019L4.41723 23.4009Z" fill="#E7057E"/>
</svg>
