<svg width="16" height="23" viewBox="0 0 16 23" fill="none" xmlns="http://www.w3.org/2000/svg">
<g clip-path="url(#clip0_108_2945)">
<path d="M13.4005 13.7109C11.9843 12.2849 10.0663 11.5 7.99958 11.5C5.93292 11.5 4.01482 12.2849 2.59863 13.7109L3.9453 15.066C5.00244 14.0022 6.44149 13.4157 7.99958 13.4157C9.55768 13.4167 10.9967 14.0022 12.0539 15.066L13.4005 13.7109Z" fill="#E7057E"/>
<path d="M16.0344 10.8215C11.6801 6.43905 4.31913 6.43905 -0.0351562 10.8215L1.31151 12.1766C4.93722 8.52822 11.062 8.52822 14.6877 12.1766L16.0344 10.8215Z" fill="#E7057E"/>
<path d="M7.999 19.1659C9.05097 19.1659 9.90376 18.3077 9.90376 17.2492C9.90376 16.1906 9.05097 15.3325 7.999 15.3325C6.94703 15.3325 6.09424 16.1906 6.09424 17.2492C6.09424 18.3077 6.94703 19.1659 7.999 19.1659Z" fill="#E7057E"/>
</g>
<defs>
<clipPath id="clip0_108_2945">
<rect width="16" height="23" fill="white"/>
</clipPath>
</defs>
</svg>
