<svg width="23" height="24" viewBox="0 0 23 24" fill="none" xmlns="http://www.w3.org/2000/svg">
<path d="M0 8.78154C0 9.21705 0.230051 9.61626 0.59329 9.85821L9.68638 15.5319L9.68638 22.1854C9.68638 23.1895 10.4976 24 11.5026 24C12.5075 24 13.3188 23.1895 13.3188 22.1854L13.3188 15.5319L22.4119 9.85821C22.6711 9.69319 22.8616 9.43996 22.9483 9.14537C23.0351 8.85078 23.012 8.53478 22.8835 8.25585C22.755 7.97692 22.5297 7.75395 22.2493 7.62819C21.969 7.50243 21.6525 7.4824 21.3585 7.57181L13.3188 10.0881L13.3188 3.43452L15.4982 1.80137C15.5749 1.74641 15.637 1.67363 15.6791 1.58933C15.7213 1.50502 15.7424 1.41172 15.7404 1.31748L15.7404 0.603739C15.7404 0.204525 15.3529 -0.0858097 14.9655 0.0230656L11.5026 1.01505L8.0397 0.0230656C7.65224 -0.0858097 7.26479 0.204525 7.26479 0.603739V1.31748C7.26281 1.41172 7.28383 1.50502 7.32602 1.58933C7.36821 1.67363 7.4303 1.74641 7.50695 1.80137L9.68638 3.43452L9.68638 10.0881L1.64668 7.57181C0.823343 7.31776 0 7.93473 0 8.78154Z" fill="#901918"/>
</svg>
