<svg width="30" height="30" viewBox="0 0 30 30" fill="none" xmlns="http://www.w3.org/2000/svg">
<path d="M27.7083 13.125H23.0854L26.7896 9.42083C26.9248 9.28592 27.032 9.12566 27.1052 8.94924C27.1784 8.77282 27.2161 8.5837 27.2161 8.39271C27.2161 8.20171 27.1784 8.01259 27.1052 7.83617C27.032 7.65975 26.9248 7.4995 26.7896 7.36458C26.2208 6.79583 25.2875 6.79583 24.7188 7.36458L18.9583 13.125H16.0417V10.2083L21.8021 4.44792C22.3708 3.87917 22.3708 2.94583 21.8021 2.37708C21.6672 2.24189 21.5069 2.13463 21.3305 2.06145C21.1541 1.98827 20.965 1.9506 20.774 1.9506C20.583 1.9506 20.3938 1.98827 20.2174 2.06145C20.041 2.13463 19.8807 2.24189 19.7458 2.37708L16.0417 6.08125V1.45833C16.0417 0.65625 15.3854 0 14.5833 0C13.7812 0 13.125 0.65625 13.125 1.45833V6.08125L9.42083 2.37708C9.28592 2.24189 9.12566 2.13463 8.94924 2.06145C8.77282 1.98827 8.5837 1.9506 8.39271 1.9506C8.20171 1.9506 8.01259 1.98827 7.83617 2.06145C7.65975 2.13463 7.4995 2.24189 7.36458 2.37708C6.79583 2.94583 6.79583 3.87917 7.36458 4.44792L13.125 10.2083V13.125H10.2083L4.44792 7.36458C3.87917 6.79583 2.94583 6.79583 2.37708 7.36458C2.24189 7.4995 2.13463 7.65975 2.06145 7.83617C1.98827 8.01259 1.9506 8.20171 1.9506 8.39271C1.9506 8.5837 1.98827 8.77282 2.06145 8.94924C2.13463 9.12566 2.24189 9.28592 2.37708 9.42083L6.08125 13.125H1.45833C0.65625 13.125 0 13.7812 0 14.5833C0 15.3854 0.65625 16.0417 1.45833 16.0417H6.08125L2.37708 19.7458C2.24189 19.8807 2.13463 20.041 2.06145 20.2174C1.98827 20.3938 1.9506 20.583 1.9506 20.774C1.9506 20.965 1.98827 21.1541 2.06145 21.3305C2.13463 21.5069 2.24189 21.6672 2.37708 21.8021C2.94583 22.3708 3.87917 22.3708 4.44792 21.8021L10.2083 16.0417H13.125V18.9583L7.36458 24.7188C6.79583 25.2875 6.79583 26.2208 7.36458 26.7896C7.93333 27.3583 8.85208 27.3583 9.42083 26.7896L13.125 23.0854V27.7083C13.125 28.5104 13.7812 29.1667 14.5833 29.1667C15.3854 29.1667 16.0417 28.5104 16.0417 27.7083V23.0854L19.7458 26.7896C20.3146 27.3583 21.2333 27.3583 21.8021 26.7896C22.3708 26.2208 22.3708 25.2875 21.8021 24.7188L16.0417 18.9583V16.0417H18.9583L24.7188 21.8021C25.2875 22.3708 26.2208 22.3708 26.7896 21.8021C26.9248 21.6672 27.032 21.5069 27.1052 21.3305C27.1784 21.1541 27.2161 20.965 27.2161 20.774C27.2161 20.583 27.1784 20.3938 27.1052 20.2174C27.032 20.041 26.9248 19.8807 26.7896 19.7458L23.0854 16.0417H27.7083C28.5104 16.0417 29.1667 15.3854 29.1667 14.5833C29.1667 13.7812 28.5104 13.125 27.7083 13.125Z" fill="#E7057E"/>
</svg>
