<svg width="10" height="15" viewBox="0 0 10 15" fill="none" xmlns="http://www.w3.org/2000/svg">
<path d="M5.76923 2.7907C6.61538 2.7907 7.30769 2.16279 7.30769 1.39535C7.30769 0.627907 6.61538 0 5.76923 0C4.92308 0 4.23077 0.627907 4.23077 1.39535C4.23077 2.16279 4.92308 2.7907 5.76923 2.7907ZM2.92308 5.16279L0.769231 15H2.38462L3.76923 9.4186L5.38462 10.814V15H6.92308V9.76744L5.30769 8.37209L5.76923 6.27907C6.76923 7.32558 8.30769 8.02326 10 8.02326V6.62791C8.53846 6.62791 7.30769 5.93023 6.69231 4.95349L5.92308 3.83721C5.61538 3.4186 5.15385 3.13953 4.61538 3.13953C4.38462 3.13953 4.23077 3.2093 4 3.2093L0 4.74419V8.02326H1.53846V5.65116L2.92308 5.16279Z" fill="#898989"/>
</svg>
