<svg width="17" height="17" viewBox="0 0 17 17" fill="none" xmlns="http://www.w3.org/2000/svg">
<g clip-path="url(#clip0_108_2915)">
<path d="M14.4497 11.9H12.4865H2.833V2.24513V0.283322C2.833 0.126637 2.70637 0 2.54968 0C2.39299 0 2.26636 0.126637 2.26636 0.283322V12.1833C2.26636 12.34 2.39299 12.4666 2.54968 12.4666H14.4497C14.6064 12.4666 14.733 12.34 14.733 12.1833C14.733 12.0266 14.6064 11.9 14.4497 11.9Z" fill="#E7057E"/>
<path d="M16.7167 13.0337H0.283322C0.126637 13.0337 0 13.1603 0 13.317V16.717C0 16.8737 0.126637 17.0004 0.283322 17.0004H16.7166C16.8733 17.0004 17 16.8737 17 16.717V13.317C17 13.1604 16.8734 13.0337 16.7167 13.0337ZM16.4333 16.4337H0.566678V13.6004H1.41668L1.41638 14.167C1.41638 14.3234 1.54302 14.4504 1.6997 14.4504C1.85609 14.4504 1.98302 14.3237 1.98302 14.167L1.98332 13.6004H3.11664V14.7337C3.11664 14.8904 3.24328 15.017 3.39997 15.017C3.55665 15.017 3.68329 14.8904 3.68329 14.7337V13.6004H4.81661V14.167C4.81661 14.3237 4.94325 14.4504 5.09993 14.4504C5.25662 14.4504 5.38326 14.3237 5.38326 14.167V13.6004H6.51658V14.7337C6.51658 14.8904 6.64321 15.017 6.7999 15.017C6.95659 15.017 7.08322 14.8904 7.08322 14.7337V13.6004H8.21655V14.167C8.21655 14.3237 8.34318 14.4504 8.49987 14.4504C8.65655 14.4504 8.78319 14.3237 8.78319 14.167V13.6004H9.91651V14.7337C9.91651 14.8904 10.0431 15.017 10.1998 15.017C10.3565 15.017 10.4832 14.8904 10.4832 14.7337V13.6004H11.6165V14.167C11.6165 14.3237 11.7431 14.4504 11.8998 14.4504C12.0565 14.4504 12.1831 14.3237 12.1831 14.167V13.6004H13.3164V14.7337C13.3164 14.8904 13.4431 15.017 13.5998 15.017C13.7565 15.017 13.8831 14.8904 13.8831 14.7337V13.6004H15.017L15.0167 14.167C15.0167 14.3234 15.1433 14.4504 15.3 14.4504C15.4564 14.4504 15.5833 14.3237 15.5833 14.167L15.5836 13.6004H16.4331V16.4337H16.4333Z" fill="#E7057E"/>
<path d="M14.7126 9.07061C14.6706 8.97003 14.5723 8.90456 14.4635 8.90456H12.8378C12.6981 5.10197 9.6313 2.03516 5.82838 1.89578V0.269721C5.82838 0.160915 5.76294 0.0626002 5.66233 0.0206647C5.56259 -0.020972 5.44615 0.00140687 5.36878 0.0779069L3.47979 1.94761C3.42909 1.99804 3.40017 2.06661 3.3999 2.13829C3.39961 2.20968 3.42766 2.27854 3.47783 2.32924L5.36682 4.23723C5.41839 4.28966 5.48808 4.31741 5.55864 4.31741C5.5932 4.31741 5.62807 4.31091 5.6612 4.29703C5.76234 4.25539 5.82865 4.15678 5.82865 4.04741V2.43523C9.33403 2.57405 12.1592 5.39917 12.298 8.90459H10.6858C10.5765 8.90459 10.4779 8.9706 10.4362 9.07203C10.3946 9.17291 10.4183 9.28935 10.496 9.36641L12.4042 11.2554C12.4544 11.3053 12.5227 11.3333 12.5938 11.3333C12.6714 11.3291 12.7352 11.3044 12.7856 11.2531L14.6553 9.36416C14.7319 9.28679 14.7545 9.17091 14.7126 9.07061ZM5.28893 3.39148L4.05132 2.14141L5.28893 0.916551V3.39148ZM12.5918 10.6819L11.3418 9.44431H13.8167L12.5918 10.6819Z" fill="#E7057E"/>
</g>
<defs>
<clipPath id="clip0_108_2915">
<rect width="17" height="17" fill="white"/>
</clipPath>
</defs>
</svg>
