<svg width="32" height="32" viewBox="0 0 32 32" fill="none" xmlns="http://www.w3.org/2000/svg">
<path d="M29.3344 28.0002C27.8544 28.0002 27.0277 27.5069 26.4277 27.1469C25.9344 26.8535 25.6277 26.6669 24.8944 26.6669C24.1477 26.6669 23.8544 26.8402 23.3611 27.1469C22.7477 27.5069 21.9344 28.0002 20.4544 28.0002C18.9744 28.0002 18.1477 27.5069 17.5477 27.1469C17.0544 26.8535 16.7477 26.6669 16.0144 26.6669C15.2677 26.6669 14.9744 26.8402 14.4811 27.1469C13.8677 27.5069 13.0411 28.0002 11.5611 28.0002C10.0811 28.0002 9.25439 27.5069 8.65439 27.1469C8.16106 26.8402 7.85439 26.6669 7.12106 26.6669C6.38772 26.6669 6.08106 26.8402 5.58772 27.1469C4.97439 27.5069 4.14772 28.0002 2.66772 28.0002V25.3335C3.41439 25.3335 3.70772 25.1602 4.20106 24.8535C4.81439 24.4935 5.64106 24.0002 7.12106 24.0002C8.60106 24.0002 9.42772 24.4935 10.0277 24.8535C10.5211 25.1602 10.8144 25.3335 11.5611 25.3335C12.3077 25.3335 12.6011 25.1602 13.0944 24.8535C13.7077 24.4935 14.5344 24.0002 16.0144 24.0002C17.4944 24.0002 18.3211 24.4935 18.9211 24.8535C19.4144 25.1469 19.7211 25.3335 20.4544 25.3335C21.1877 25.3335 21.4944 25.1602 21.9877 24.8535C22.5877 24.4935 23.4144 24.0002 24.8944 24.0002C26.3744 24.0002 27.2011 24.4935 27.8011 24.8535C28.2944 25.1602 28.5877 25.3335 29.3344 25.3335V28.0002ZM29.3344 22.0002C27.8544 22.0002 27.0277 21.5069 26.4277 21.1469C25.9344 20.8535 25.6277 20.6669 24.8944 20.6669C24.1477 20.6669 23.8544 20.8402 23.3611 21.1469C22.7611 21.5069 21.9344 22.0002 20.4544 22.0002C18.9744 22.0002 18.1477 21.5069 17.5477 21.1469C17.0544 20.8535 16.7477 20.6669 16.0144 20.6669C15.2677 20.6669 14.9744 20.8402 14.4811 21.1469C13.8811 21.5069 13.0544 22.0002 11.5744 22.0002C10.0944 22.0002 9.26772 21.5069 8.66772 21.1469C8.17439 20.8535 7.86772 20.6669 7.13439 20.6669C6.40106 20.6669 6.09439 20.8402 5.60106 21.1469C4.97439 21.5069 4.14772 22.0002 2.66772 22.0002V19.3335C3.41439 19.3335 3.70772 19.1602 4.20106 18.8535C4.80106 18.4935 5.62772 18.0002 7.10772 18.0002C8.58772 18.0002 9.41439 18.4935 10.0144 18.8535C10.5077 19.1469 10.8144 19.3335 11.5477 19.3335C12.2944 19.3335 12.5877 19.1602 13.0811 18.8535C13.6811 18.4935 14.5077 18.0002 15.9877 18.0002C17.4677 18.0002 18.2944 18.4935 18.8944 18.8535C19.3877 19.1469 19.6944 19.3335 20.4277 19.3335C21.1611 19.3335 21.4677 19.1602 21.9611 18.8535C22.5611 18.4935 23.3877 18.0002 24.8677 18.0002C26.3477 18.0002 27.1744 18.4935 27.7744 18.8535C28.2677 19.1469 28.5744 19.3335 29.3077 19.3335V22.0002H29.3344ZM11.5611 16.0002C12.3077 16.0002 12.6011 15.8269 13.0944 15.5202C13.7077 15.1602 14.5344 14.6669 16.0144 14.6669C17.4944 14.6669 18.3211 15.1602 18.9211 15.5202C19.4144 15.8135 19.7211 16.0002 20.4544 16.0002C21.1877 16.0002 21.4944 15.8269 21.9877 15.5202C22.1477 15.4269 22.3344 15.3202 22.5344 15.2135L13.9744 6.66688C11.9077 4.60021 10.0011 3.98688 6.66772 4.00021V7.33355C9.09439 7.32021 10.5211 7.85355 12.0011 9.33355L13.3344 10.6669L9.00106 15.0002C9.41439 15.1602 9.74772 15.3602 10.0277 15.5202C10.5211 15.8269 10.8144 16.0002 11.5611 16.0002Z" fill="#E7057E"/>
<path d="M22.0011 10.6667C23.842 10.6667 25.3344 9.17428 25.3344 7.33333C25.3344 5.49238 23.842 4 22.0011 4C20.1601 4 18.6677 5.49238 18.6677 7.33333C18.6677 9.17428 20.1601 10.6667 22.0011 10.6667Z" fill="#E7057E"/>
</svg>
