<svg width="32" height="27" viewBox="0 0 32 27" fill="none" xmlns="http://www.w3.org/2000/svg">
<path d="M7.10937 16.0052V11.6302L4.375 13.125L0 5.54167L9.625 0H11.4844C11.8733 1.16667 12.3351 2.1875 12.8698 3.0625C13.4045 3.9375 14.401 4.375 15.8594 4.375C17.3177 4.375 18.3142 3.9375 18.849 3.0625C19.3837 2.1875 19.8455 1.16667 20.2344 0H22.0937L31.6823 5.57812L27.3437 13.125L24.6094 11.6302V18.6302L22.3125 20.6354C22.1424 20.7812 21.9479 20.8969 21.7292 20.9825C21.5104 21.0671 21.2917 21.1094 21.0729 21.1094C20.9271 21.1094 20.7569 21.0608 20.5625 20.9635C20.3681 20.8663 20.1736 20.7448 19.9792 20.599L16.1146 17.2813C15.3368 16.6007 14.4618 16.1024 13.4896 15.7865C12.5174 15.4705 11.533 15.3125 10.5365 15.3125C9.95312 15.3125 9.37562 15.3674 8.80396 15.4773C8.23326 15.5862 7.6684 15.7622 7.10937 16.0052ZM5.14062 23.8802L3.24479 21.6563L6.41667 18.9583C6.97569 18.4722 7.61396 18.1018 8.33146 17.8471C9.04799 17.5914 9.79514 17.4635 10.5729 17.4635C11.3507 17.4635 12.092 17.5914 12.7969 17.8471C13.5017 18.1018 14.1337 18.4722 14.6927 18.9583L18.9219 22.5677C19.2135 22.8108 19.5597 22.9994 19.9602 23.1335C20.3617 23.2667 20.7691 23.3333 21.1823 23.3333C21.6198 23.3333 22.0272 23.2726 22.4044 23.151C22.7806 23.0295 23.1146 22.8351 23.4062 22.5677L26.5781 19.8333L28.474 22.0938L25.3021 24.7917C24.7431 25.2778 24.1111 25.6424 23.4062 25.8854C22.7014 26.1285 21.9601 26.25 21.1823 26.25C20.4045 26.25 19.6574 26.1285 18.9408 25.8854C18.2233 25.6424 17.5851 25.2778 17.026 24.7917L12.7969 21.1823C12.5052 20.9392 12.1712 20.7506 11.795 20.6165C11.4178 20.4833 11.0104 20.4167 10.5729 20.4167C10.1597 20.4167 9.75236 20.4833 9.35083 20.6165C8.95028 20.7506 8.60417 20.9392 8.3125 21.1823L5.14062 23.8802Z" fill="#E7057E"/>
</svg>
