<svg width="14" height="19" viewBox="0 0 14 19" fill="none" xmlns="http://www.w3.org/2000/svg">
<g clip-path="url(#clip0_106_4)">
<path d="M9.69231 10.0588C9.1 10.0588 8.59313 9.83976 8.17169 9.40165C7.74954 8.96427 7.53846 8.43824 7.53846 7.82353V2.23529C7.53846 1.62059 7.74954 1.09455 8.17169 0.657176C8.59313 0.219059 9.1 0 9.69231 0H11.8462C12.4385 0 12.9457 0.219059 13.3678 0.657176C13.7893 1.09455 14 1.62059 14 2.23529V7.82353C14 8.43824 13.7893 8.96427 13.3678 9.40165C12.9457 9.83976 12.4385 10.0588 11.8462 10.0588H9.69231ZM4.84615 15.6471C4.36154 15.6471 3.93077 15.5029 3.55385 15.2145C3.17692 14.9254 2.91667 14.5387 2.77308 14.0544L0.080769 4.77794C0.0448716 4.6848 0.0226154 4.58235 0.014 4.47059C0.00466668 4.35882 0 4.24706 0 4.13529V1.11765C0 0.80098 0.103026 0.535353 0.309077 0.320765C0.515846 0.106922 0.771795 0 1.07692 0C1.38205 0 1.638 0.106922 1.84477 0.320765C2.05082 0.535353 2.15385 0.80098 2.15385 1.11765V4.47059L4.84615 13.4118H12.9231C13.2282 13.4118 13.4838 13.5191 13.6898 13.7336C13.8966 13.9475 14 14.2127 14 14.5294C14 14.8461 13.8966 15.1113 13.6898 15.3252C13.4838 15.5398 13.2282 15.6471 12.9231 15.6471H4.84615ZM4.30769 19C4.00256 19 3.74697 18.8927 3.54092 18.6781C3.33415 18.4643 3.23077 18.199 3.23077 17.8824C3.23077 17.5657 3.33415 17.3004 3.54092 17.0866C3.74697 16.872 4.00256 16.7647 4.30769 16.7647H12.9231C13.2282 16.7647 13.4838 16.872 13.6898 17.0866C13.8966 17.3004 14 17.5657 14 17.8824C14 18.199 13.8966 18.4643 13.6898 18.6781C13.4838 18.8927 13.2282 19 12.9231 19H4.30769Z" fill="#E7057E"/>
</g>
<defs>
<clipPath id="clip0_106_4">
<rect width="14" height="19" fill="white"/>
</clipPath>
</defs>
</svg>
