<svg width="16" height="15" viewBox="0 0 16 15" fill="none" xmlns="http://www.w3.org/2000/svg">
<path d="M14.3535 3.70658H11.4914C11.356 2.91976 10.948 2.20622 10.3394 1.69189C9.73086 1.17756 8.96081 0.895508 8.16518 0.895508C7.36955 0.895508 6.5995 1.17756 5.99092 1.69189C5.38234 2.20622 4.97436 2.91976 4.83897 3.70658H1.97689C1.67848 3.70658 1.3923 3.82555 1.18129 4.03731C0.970287 4.24907 0.851746 4.53627 0.851746 4.83575V13.869C0.851746 14.1685 0.970287 14.4557 1.18129 14.6675C1.3923 14.8792 1.67848 14.9982 1.97689 14.9982H14.3535C14.6519 14.9982 14.9381 14.8792 15.1491 14.6675C15.3601 14.4557 15.4786 14.1685 15.4786 13.869V4.83575C15.4786 4.53627 15.3601 4.24907 15.1491 4.03731C14.9381 3.82555 14.6519 3.70658 14.3535 3.70658ZM8.16518 2.01284C8.66395 2.0138 9.14835 2.1805 9.54274 2.48693C9.93713 2.79335 10.2193 3.22223 10.3451 3.70658H5.98521C6.11107 3.22223 6.39323 2.79335 6.78761 2.48693C7.182 2.1805 7.66641 2.0138 8.16518 2.01284Z" fill="#901918"/>
</svg>
