<svg width="26" height="29" viewBox="0 0 26 29" fill="none" xmlns="http://www.w3.org/2000/svg">
<path d="M12.9449 0.226562C11.5711 0.226562 10.4518 1.3775 10.4518 2.79012C10.4518 4.2016 11.5601 5.35254 12.9449 5.35254C14.3077 5.35254 15.4369 4.2016 15.4369 2.79012C15.4369 1.3775 14.3187 0.226562 12.9449 0.226562ZM16.0847 5.89062H9.80508C8.08754 5.89062 6.72034 7.40973 6.72034 9.17578V12.8008H8.92373V9.74219C8.92373 9.54848 9.06585 9.40234 9.25424 9.40234C9.44263 9.40234 9.58475 9.54848 9.58475 9.74219V12.8008H16.3051V9.74219C16.3051 9.54848 16.4472 9.40234 16.6356 9.40234C16.824 9.40234 16.9661 9.54848 16.9661 9.74219V12.8008H19.1695V9.17578C19.1695 7.42105 17.7913 5.89062 16.0847 5.89062ZM12.0614 17.5144V18.577H13.9298V17.5144H12.0614ZM12.0614 17.5144V18.577H13.9298V17.5144H12.0614ZM0.220337 13.3672V16.4258H2.75424V28.7734H23.1356V16.4258H25.7797V13.3672H0.220337ZM9.62661 25.767H8.86093C8.33212 25.767 7.82203 25.3625 7.82203 24.6659C7.82203 24.6659 7.82203 19.669 7.82203 19.6498C7.82203 19.029 8.3233 18.5589 8.86093 18.5589H9.62661V25.767ZM15.8534 25.776H10.1466V18.577H11.5414V17.5427C11.5414 17.1655 11.8697 16.931 12.2519 16.931H13.7381C14.1303 16.931 14.4498 17.1655 14.4498 17.5427V18.577H15.8534V25.776ZM18.178 24.6659C18.178 25.3625 17.6679 25.767 17.1391 25.767H16.3734V18.5589H17.1391C17.6767 18.5589 18.178 19.029 18.178 19.6498C18.178 19.669 18.178 24.6659 18.178 24.6659ZM12.0614 18.577H13.9298V17.5144H12.0614V18.577ZM12.0614 17.5144V18.577H13.9298V17.5144H12.0614ZM12.0614 17.5144V18.577H13.9298V17.5144H12.0614Z" fill="#901918"/>
</svg>
