<svg width="25" height="26" viewBox="0 0 25 26" fill="none" xmlns="http://www.w3.org/2000/svg">
<path d="M10.0002 0.450667C10.1629 0.64342 10.2625 0.879314 10.2863 1.12787C10.3101 1.37642 10.2568 1.62622 10.1335 1.84498C9.16992 3.56994 8.66671 5.50348 8.67015 7.46771C8.67015 14.0021 14.1336 19.2933 20.867 19.2933C21.7454 19.2933 22.6004 19.204 23.4221 19.0333C23.674 18.9801 23.9363 19.0005 24.1764 19.0918C24.4165 19.1831 24.6237 19.3414 24.7721 19.5468C24.9287 19.7605 25.0086 20.0186 24.9993 20.281C24.9899 20.5434 24.8919 20.7955 24.7204 20.998C23.4132 22.5637 21.7641 23.8251 19.8934 24.6905C18.0227 25.5558 15.9775 26.0032 13.9069 26C6.22344 26 0 19.9645 0 12.5282C0 6.93144 3.52339 2.13099 8.54015 0.0964022C8.79005 -0.00657536 9.06747 -0.027711 9.33074 0.0361701C9.59402 0.100051 9.82892 0.2455 10.0002 0.450667Z" fill="#B3B3B3"/>
</svg>
