<svg width="33" height="44" viewBox="0 0 33 44" fill="none" xmlns="http://www.w3.org/2000/svg">
<path d="M28.25 19.5417H4.75C3.71124 19.5417 2.71502 19.9543 1.9805 20.6888C1.24598 21.4234 0.833333 22.4196 0.833333 23.4583V39.125C0.833333 40.1638 1.24598 41.16 1.9805 41.8945C2.71502 42.629 3.71124 43.0417 4.75 43.0417H28.25C29.2888 43.0417 30.285 42.629 31.0195 41.8945C31.754 41.16 32.1667 40.1638 32.1667 39.125V23.4583C32.1667 22.4196 31.754 21.4234 31.0195 20.6888C30.285 19.9543 29.2888 19.5417 28.25 19.5417ZM28.25 39.125H4.75V31.2917H28.25V39.125ZM28.25 27.375H4.75V23.4583H28.25V27.375ZM26.2917 7.79167V17.5833H23.3542V10.7292H12.3483L17.0875 15.4879L15.0117 17.5833L6.70833 9.26042L15.0117 0.9375L17.0875 3.03292L12.3483 7.79167H26.2917Z" fill="white"/>
</svg>
