<svg width="34" height="18" viewBox="0 0 34 18" fill="none" xmlns="http://www.w3.org/2000/svg">
<path d="M3.01221 17.6591C2.58548 17.6591 2.22803 17.5145 1.93986 17.2253C1.65069 16.9372 1.50611 16.5797 1.50611 16.153C1.50611 15.7263 1.65069 15.3688 1.93986 15.0806C2.22803 14.7915 2.58548 14.6469 3.01221 14.6469H30.1221C30.5488 14.6469 30.9063 14.7915 31.1945 15.0806C31.4836 15.3688 31.6282 15.7263 31.6282 16.153C31.6282 16.5797 31.4836 16.9372 31.1945 17.2253C30.9063 17.5145 30.5488 17.6591 30.1221 17.6591H3.01221ZM2.25916 7.98236C1.98304 7.83175 1.80733 7.60584 1.73202 7.30461C1.65672 7.00339 1.69437 6.71472 1.84498 6.4386L2.56038 5.15841H1.12958C0.803256 5.15841 0.533161 5.05148 0.319294 4.83761C0.106432 4.62475 0 4.35516 0 4.02883C0 3.70251 0.106432 3.43242 0.319294 3.21855C0.533161 3.00569 0.803256 2.89925 1.12958 2.89925H2.56038L1.84498 1.69437C1.69437 1.41825 1.65672 1.12958 1.73202 0.828358C1.80733 0.527137 1.98304 0.301221 2.25916 0.15061C2.53528 -2.13206e-07 2.82395 -0.0376526 3.12517 0.0376527C3.42639 0.112958 3.65231 0.28867 3.80292 0.56479L4.51832 1.76967L5.23372 0.56479C5.38433 0.28867 5.61024 0.112958 5.91147 0.0376527C6.21269 -0.0376526 6.50136 -2.13206e-07 6.77748 0.15061C7.0536 0.301221 7.22931 0.527137 7.30461 0.828358C7.37992 1.12958 7.34227 1.41825 7.19166 1.69437L6.47625 2.89925H7.90706C8.23338 2.89925 8.50297 3.00569 8.71583 3.21855C8.9297 3.43242 9.03663 3.70251 9.03663 4.02883C9.03663 4.35516 8.9297 4.62475 8.71583 4.83761C8.50297 5.05148 8.23338 5.15841 7.90706 5.15841H6.47625L7.19166 6.4386C7.34227 6.71472 7.37992 7.00339 7.30461 7.30461C7.22931 7.60584 7.0536 7.83175 6.77748 7.98236C6.50136 8.13297 6.21269 8.17062 5.91147 8.09532C5.61024 8.02001 5.38433 7.8443 5.23372 7.56818L4.51832 6.28799L3.80292 7.56818C3.65231 7.8443 3.42639 8.02001 3.12517 8.09532C2.82395 8.17062 2.53528 8.13297 2.25916 7.98236ZM14.308 7.98236C14.0319 7.83175 13.8562 7.60584 13.7809 7.30461C13.7056 7.00339 13.7432 6.71472 13.8938 6.4386L14.6092 5.15841H13.1784C12.8521 5.15841 12.5825 5.05148 12.3696 4.83761C12.1558 4.62475 12.0488 4.35516 12.0488 4.02883C12.0488 3.70251 12.1558 3.43242 12.3696 3.21855C12.5825 3.00569 12.8521 2.89925 13.1784 2.89925H14.6092L13.8938 1.69437C13.7432 1.41825 13.7056 1.12958 13.7809 0.828358C13.8562 0.527137 14.0319 0.301221 14.308 0.15061C14.5841 -2.13206e-07 14.8728 -0.0376526 15.174 0.0376527C15.4752 0.112958 15.7012 0.28867 15.8518 0.56479L16.5672 1.76967L17.2826 0.56479C17.4332 0.28867 17.6591 0.112958 17.9603 0.0376527C18.2615 -0.0376526 18.5502 -2.13206e-07 18.8263 0.15061C19.1024 0.301221 19.2782 0.527137 19.3535 0.828358C19.4288 1.12958 19.3911 1.41825 19.2405 1.69437L18.5251 2.89925H19.9559C20.2822 2.89925 20.5523 3.00569 20.7662 3.21855C20.979 3.43242 21.0855 3.70251 21.0855 4.02883C21.0855 4.35516 20.979 4.62475 20.7662 4.83761C20.5523 5.05148 20.2822 5.15841 19.9559 5.15841H18.5251L19.2405 6.4386C19.3911 6.71472 19.4288 7.00339 19.3535 7.30461C19.2782 7.60584 19.1024 7.83175 18.8263 7.98236C18.5502 8.13297 18.2615 8.17062 17.9603 8.09532C17.6591 8.02001 17.4332 7.8443 17.2826 7.56818L16.5672 6.28799L15.8518 7.56818C15.7012 7.8443 15.4752 8.02001 15.174 8.09532C14.8728 8.17062 14.5841 8.13297 14.308 7.98236ZM26.3569 7.98236C26.0807 7.83175 25.905 7.60584 25.8297 7.30461C25.7544 7.00339 25.7921 6.71472 25.9427 6.4386L26.6581 5.15841H25.2273C24.9009 5.15841 24.6309 5.05148 24.417 4.83761C24.2041 4.62475 24.0977 4.35516 24.0977 4.02883C24.0977 3.70251 24.2041 3.43242 24.417 3.21855C24.6309 3.00569 24.9009 2.89925 25.2273 2.89925H26.6581L25.9427 1.69437C25.7921 1.41825 25.7544 1.12958 25.8297 0.828358C25.905 0.527137 26.0807 0.301221 26.3569 0.15061C26.633 -2.13206e-07 26.9216 -0.0376526 27.2229 0.0376527C27.5241 0.112958 27.75 0.28867 27.9006 0.56479L28.616 1.76967L29.3314 0.56479C29.482 0.28867 29.7079 0.112958 30.0092 0.0376527C30.3104 -0.0376526 30.599 -2.13206e-07 30.8752 0.15061C31.1513 0.301221 31.327 0.527137 31.4023 0.828358C31.4776 1.12958 31.44 1.41825 31.2893 1.69437L30.5739 2.89925H32.0047C32.3311 2.89925 32.6012 3.00569 32.815 3.21855C33.0279 3.43242 33.1343 3.70251 33.1343 4.02883C33.1343 4.35516 33.0279 4.62475 32.815 4.83761C32.6012 5.05148 32.3311 5.15841 32.0047 5.15841H30.5739L31.2893 6.4386C31.44 6.71472 31.4776 7.00339 31.4023 7.30461C31.327 7.60584 31.1513 7.83175 30.8752 7.98236C30.599 8.13297 30.3104 8.17062 30.0092 8.09532C29.7079 8.02001 29.482 7.8443 29.3314 7.56818L28.616 6.28799L27.9006 7.56818C27.75 7.8443 27.5241 8.02001 27.2229 8.09532C26.9216 8.17062 26.633 8.13297 26.3569 7.98236Z" fill="#898989"/>
</svg>
