<svg width="16" height="20" viewBox="0 0 16 20" fill="none" xmlns="http://www.w3.org/2000/svg">
<path fill-rule="evenodd" clip-rule="evenodd" d="M0 19.5005C0 19.3679 0.0526785 19.2407 0.146447 19.1469C0.240215 19.0532 0.367392 19.0005 0.5 19.0005H15.5C15.6326 19.0005 15.7598 19.0532 15.8536 19.1469C15.9473 19.2407 16 19.3679 16 19.5005C16 19.6331 15.9473 19.7603 15.8536 19.854C15.7598 19.9478 15.6326 20.0005 15.5 20.0005H0.5C0.367392 20.0005 0.240215 19.9478 0.146447 19.854C0.0526785 19.7603 0 19.6331 0 19.5005Z" fill="#E7057E"/>
<path fill-rule="evenodd" clip-rule="evenodd" d="M2.00049 8.99951V18.9995H4.50049V8.99951H2.00049ZM1.50049 7.99951C1.36788 7.99951 1.2407 8.05219 1.14694 8.14596C1.05317 8.23973 1.00049 8.3669 1.00049 8.49951V19.4995C1.00049 19.6321 1.05317 19.7593 1.14694 19.8531C1.2407 19.9468 1.36788 19.9995 1.50049 19.9995H5.00049C5.1331 19.9995 5.26027 19.9468 5.35404 19.8531C5.44781 19.7593 5.50049 19.6321 5.50049 19.4995V8.49951C5.50049 8.3669 5.44781 8.23973 5.35404 8.14596C5.26027 8.05219 5.1331 7.99951 5.00049 7.99951H1.50049Z" fill="#E7057E"/>
<path fill-rule="evenodd" clip-rule="evenodd" d="M4.5 0L12.5 3V10H10C9.86739 10 9.74021 10.0527 9.64645 10.1464C9.55268 10.2402 9.5 10.3674 9.5 10.5V19H4.5V0ZM6 4.5H7V5.5H6V4.5ZM9 4.5H8V5.5H9V4.5ZM10 4.5H11V5.5H10V4.5ZM7 6.5H6V7.5H7V6.5ZM8 6.5H9V7.5H8V6.5ZM11 6.5H10V7.5H11V6.5ZM6 8.5H7V9.5H6V8.5ZM9 8.5H8V9.5H9V8.5ZM10 8.5H11V9.5H10V8.5ZM7 10.5H6V11.5H7V10.5ZM8 10.5H9V11.5H8V10.5ZM6 12.5H7V13.5H6V12.5ZM9 12.5H8V13.5H9V12.5ZM7 14.5H6V15.5H7V14.5ZM8 14.5H9V15.5H8V14.5ZM6 16.5H7V17.5H6V16.5ZM9 16.5H8V17.5H9V16.5Z" fill="#E7057E"/>
<path fill-rule="evenodd" clip-rule="evenodd" d="M10.4995 11.0005V19.0005H13.9995V11.0005H10.4995ZM9.99951 10.0005C9.8669 10.0005 9.73973 10.0532 9.64596 10.1469C9.55219 10.2407 9.49951 10.3679 9.49951 10.5005V19.5005C9.49951 19.6331 9.55219 19.7603 9.64596 19.854C9.73973 19.9478 9.8669 20.0005 9.99951 20.0005H14.4995C14.6321 20.0005 14.7593 19.9478 14.8531 19.854C14.9468 19.7603 14.9995 19.6331 14.9995 19.5005V10.5005C14.9995 10.3679 14.9468 10.2407 14.8531 10.1469C14.7593 10.0532 14.6321 10.0005 14.4995 10.0005H9.99951Z" fill="#E7057E"/>
<path fill-rule="evenodd" clip-rule="evenodd" d="M13.0005 13H11.5005V12H13.0005V13ZM13.0005 15H11.5005V14H13.0005V15ZM13.0005 17H11.5005V16H13.0005V17ZM13.0005 19H11.5005V18H13.0005V19ZM3.50049 4.5V8.5H2.50049V4.5H3.50049Z" fill="#E7057E"/>
</svg>
