<svg width="18" height="20" viewBox="0 0 18 20" fill="none" xmlns="http://www.w3.org/2000/svg">
<g clip-path="url(#clip0_106_6)">
<path fill-rule="evenodd" clip-rule="evenodd" d="M13 12C14.2885 12.0001 15.5272 12.4975 16.4578 13.3887C17.3884 14.2798 17.9391 15.4958 17.995 16.783L18 17V19C17.9997 19.2549 17.9021 19.5 17.7272 19.6854C17.5522 19.8707 17.313 19.9822 17.0586 19.9972C16.8042 20.0121 16.5536 19.9293 16.3582 19.7657C16.1627 19.6021 16.0371 19.3701 16.007 19.117L16 19V17C16 16.2348 15.7077 15.4985 15.1827 14.9417C14.6578 14.385 13.9399 14.0499 13.176 14.005L13 14H5C4.23479 14 3.49849 14.2923 2.94174 14.8173C2.38499 15.3422 2.04989 16.0601 2.005 16.824L2 17V19C1.99972 19.2549 1.90212 19.5 1.72715 19.6854C1.55218 19.8707 1.31305 19.9822 1.05861 19.9972C0.804163 20.0121 0.553621 19.9293 0.358167 19.7657C0.162714 19.6021 0.0371036 19.3701 0.00699997 19.117L0 19V17C7.44425e-05 15.7115 0.497542 14.4728 1.38866 13.5422C2.27978 12.6116 3.49575 12.0609 4.783 12.005L5 12H13ZM9 0C10.3261 0 11.5979 0.526784 12.5355 1.46447C13.4732 2.40215 14 3.67392 14 5C14 6.32608 13.4732 7.59785 12.5355 8.53553C11.5979 9.47322 10.3261 10 9 10C7.67392 10 6.40215 9.47322 5.46447 8.53553C4.52678 7.59785 4 6.32608 4 5C4 3.67392 4.52678 2.40215 5.46447 1.46447C6.40215 0.526784 7.67392 0 9 0ZM9 2C8.60603 2 8.21593 2.0776 7.85195 2.22836C7.48797 2.37913 7.15726 2.6001 6.87868 2.87868C6.6001 3.15726 6.37913 3.48797 6.22836 3.85195C6.0776 4.21593 6 4.60603 6 5C6 5.39397 6.0776 5.78407 6.22836 6.14805C6.37913 6.51203 6.6001 6.84274 6.87868 7.12132C7.15726 7.3999 7.48797 7.62087 7.85195 7.77164C8.21593 7.9224 8.60603 8 9 8C9.79565 8 10.5587 7.68393 11.1213 7.12132C11.6839 6.55871 12 5.79565 12 5C12 4.20435 11.6839 3.44129 11.1213 2.87868C10.5587 2.31607 9.79565 2 9 2Z" fill="#E7057E"/>
</g>
<defs>
<clipPath id="clip0_106_6">
<rect width="18" height="20" fill="white"/>
</clipPath>
</defs>
</svg>
