<svg width="33" height="31" viewBox="0 0 33 31" fill="none" xmlns="http://www.w3.org/2000/svg">
<path d="M25.0871 13.7792C24.8644 11.3362 24.1222 8.96895 22.9103 6.83609C21.6983 4.70324 20.0445 2.85402 18.0597 1.4123L16.1094 0L14.2818 1.42119C12.3776 2.90158 10.8072 4.76702 9.67311 6.89566C8.53901 9.0243 7.86674 11.3683 7.70021 13.7744C6.96448 13.6357 6.21743 13.566 5.46875 13.566H0V18.0469C0 24.6809 5.39718 30.0781 12.0312 30.0781H20.7812C27.4153 30.0781 32.8125 24.6809 32.8125 18.0469V13.566H27.3438C26.5865 13.5659 25.8309 13.6373 25.0871 13.7792ZM15.6248 3.14795L16.1563 2.73438L16.777 3.18384C18.5669 4.48413 20.0476 6.16377 21.1131 8.10273C22.1785 10.0417 22.8025 12.1921 22.9404 14.4002C20.048 15.5461 17.7079 17.762 16.4062 20.5879C15.1019 17.7568 12.7554 15.5382 9.85578 14.3945C9.93217 12.2112 10.4887 10.0716 11.4858 8.12774C12.4829 6.18392 13.8961 4.48368 15.6248 3.14795ZM15.3125 27.8906H12.0312C6.60352 27.8906 2.1875 23.4746 2.1875 18.0469V15.7535H5.46875C10.8965 15.7535 15.3125 20.1695 15.3125 25.5972V27.8906ZM30.625 18.0469C30.625 23.4746 26.209 27.8906 20.7812 27.8906H17.5V25.5972C17.5 20.1695 21.916 15.7535 27.3438 15.7535H30.625V18.0469Z" fill="#E7057E"/>
</svg>
