<svg width="18" height="28" viewBox="0 0 18 28" fill="none" xmlns="http://www.w3.org/2000/svg">
<path d="M15.4286 2.54545H11.5714V5.09091H15.4286V25.4545H2.57143V5.09091H6.42857V2.54545H2.57143C1.88944 2.54545 1.23539 2.81364 0.753154 3.291C0.270917 3.76837 0 4.41581 0 5.09091V25.4545C0 26.1296 0.270917 26.7771 0.753154 27.2545C1.23539 27.7318 1.88944 28 2.57143 28H15.4286C16.1106 28 16.7646 27.7318 17.2468 27.2545C17.7291 26.7771 18 26.1296 18 25.4545V5.09091C18 4.41581 17.7291 3.76837 17.2468 3.291C16.7646 2.81364 16.1106 2.54545 15.4286 2.54545ZM9 7.63636C9.68198 7.63636 10.336 7.90454 10.8183 8.38191C11.3005 8.85927 11.5714 9.50672 11.5714 10.1818C11.5714 10.8569 11.3005 11.5044 10.8183 11.9817C10.336 12.4591 9.68198 12.7273 9 12.7273C8.31801 12.7273 7.66396 12.4591 7.18173 11.9817C6.69949 11.5044 6.42857 10.8569 6.42857 10.1818C6.42857 9.50672 6.69949 8.85927 7.18173 8.38191C7.66396 7.90454 8.31801 7.63636 9 7.63636ZM14.1429 17.8182H3.85714V16.5455C3.85714 14.8527 7.29 14 9 14C10.71 14 14.1429 14.8527 14.1429 16.5455V17.8182ZM14.1429 21.6364H3.85714V20.3636H14.1429V21.6364ZM9 24.1818H3.85714V22.9091H9V24.1818ZM10.2857 5.09091H7.71429V0H10.2857V5.09091Z" fill="#898989"/>
</svg>
