<svg width="24" height="19" viewBox="0 0 24 19" fill="none" xmlns="http://www.w3.org/2000/svg">
<path d="M6.97 1.20285C6.89047 0.988825 6.89206 0.74949 6.97442 0.53672C7.05678 0.32395 7.21328 0.154888 7.41 0.0661752C7.50704 0.0222565 7.61121 -0.00024097 7.71639 1.94636e-06C7.82158 0.000244863 7.92565 0.0232235 8.02252 0.06759C8.11939 0.111956 8.2071 0.176817 8.28051 0.258368C8.35392 0.339919 8.41154 0.436518 8.45 0.542498L9.22 2.53439C9.30013 2.74707 9.29997 2.9853 9.21956 3.19785C9.13915 3.41041 8.98491 3.58033 8.79 3.67107C8.69132 3.71349 8.58617 3.73552 8.48 3.73602C8.32264 3.7338 8.16919 3.68261 8.03798 3.58855C7.90676 3.49449 7.80332 3.36154 7.74 3.20557L6.97 1.20285ZM20.5 9.12713C20.6062 9.12663 20.7113 9.1046 20.81 9.06218L22.65 8.22861C22.7479 8.18698 22.8371 8.1246 22.9125 8.04513C22.9878 7.96567 23.0477 7.87071 23.0887 7.76585C23.1297 7.66098 23.1509 7.54831 23.1511 7.43445C23.1514 7.32058 23.1306 7.20781 23.09 7.10276C23.0081 6.8898 22.8519 6.72039 22.6553 6.63122C22.4588 6.54206 22.2377 6.54034 22.04 6.62644L20.19 7.46C20.0181 7.53642 19.8762 7.67522 19.7885 7.85259C19.7009 8.02996 19.673 8.23482 19.7097 8.43202C19.7463 8.62922 19.8453 8.80645 19.9895 8.93328C20.1337 9.06012 20.3142 9.12866 20.5 9.12713ZM15.21 3.67107C15.3087 3.71349 15.4138 3.73552 15.52 3.73602C15.6774 3.7338 15.8308 3.68261 15.962 3.58855C16.0932 3.49449 16.1967 3.36154 16.26 3.20557L17.03 1.20285C17.1095 0.988825 17.1079 0.74949 17.0256 0.53672C16.9432 0.32395 16.7867 0.154888 16.59 0.0661752C16.493 0.0222565 16.3888 -0.00024097 16.2836 1.94636e-06C16.1784 0.000244863 16.0743 0.0232235 15.9775 0.06759C15.8806 0.111956 15.7929 0.176817 15.7195 0.258368C15.6461 0.339919 15.5885 0.436518 15.55 0.542498L14.78 2.53439C14.6999 2.74707 14.7 2.9853 14.7804 3.19785C14.8608 3.41041 15.0151 3.58033 15.21 3.67107ZM1.35 8.22861L3.19 9.06218C3.28868 9.1046 3.39383 9.12663 3.5 9.12713C3.68581 9.12866 3.86631 9.06012 4.01053 8.93328C4.15475 8.80645 4.25368 8.62922 4.29035 8.43202C4.32702 8.23482 4.29913 8.02996 4.21148 7.85259C4.12383 7.67522 3.98188 7.53642 3.81 7.46L1.96 6.62644C1.76229 6.54034 1.54121 6.54206 1.34466 6.63122C1.14812 6.72039 0.991948 6.8898 0.91 7.10276C0.86943 7.20781 0.848648 7.32058 0.848873 7.43445C0.849097 7.54831 0.870323 7.66098 0.911307 7.76585C0.95229 7.87071 1.0122 7.96567 1.08754 8.04513C1.16287 8.1246 1.2521 8.18698 1.35 8.22861ZM23.2 12.9377H18.75C18.7819 12.6503 18.7986 12.3611 18.8 12.0717C18.8 10.1193 18.0836 8.24693 16.8083 6.86641C15.5331 5.48589 13.8035 4.71032 12 4.71032C10.1965 4.71032 8.46692 5.48589 7.19167 6.86641C5.91643 8.24693 5.2 10.1193 5.2 12.0717C5.20139 12.3611 5.21809 12.6503 5.25 12.9377H0.8C0.587827 12.9377 0.384344 13.029 0.234315 13.1914C0.0842854 13.3538 0 13.5741 0 13.8038C0 14.0334 0.0842854 14.2537 0.234315 14.4161C0.384344 14.5786 0.587827 14.6698 0.8 14.6698H23.2C23.4122 14.6698 23.6157 14.5786 23.7657 14.4161C23.9157 14.2537 24 14.0334 24 13.8038C24 13.5741 23.9157 13.3538 23.7657 13.1914C23.6157 13.029 23.4122 12.9377 23.2 12.9377ZM20 17.2679H4C3.78783 17.2679 3.58434 17.3592 3.43431 17.5216C3.28429 17.684 3.2 17.9043 3.2 18.134C3.2 18.3636 3.28429 18.5839 3.43431 18.7463C3.58434 18.9088 3.78783 19 4 19H20C20.2122 19 20.4157 18.9088 20.5657 18.7463C20.7157 18.5839 20.8 18.3636 20.8 18.134C20.8 17.9043 20.7157 17.684 20.5657 17.5216C20.4157 17.3592 20.2122 17.2679 20 17.2679Z" fill="#B3B3B3"/>
</svg>
