<svg width="17" height="18" viewBox="0 0 17 18" fill="none" xmlns="http://www.w3.org/2000/svg">
<path d="M16.2584 11.0455H0.18503C0.0834023 11.0455 0.000252377 11.1375 0.000252377 11.25V12.7841C0.000252377 12.8966 0.0834023 12.9886 0.18503 12.9886H14.1635L10.8305 17.6676C10.7358 17.8006 10.8213 18 10.9761 18H12.6506C12.7638 18 12.87 17.9438 12.9416 17.844L16.8404 12.3699C17.2215 11.833 16.8774 11.0455 16.2584 11.0455ZM16.815 5.01136H2.83659L6.16952 0.332386C6.26422 0.199432 6.17876 0 6.02401 0H4.34946C4.23628 0 4.13004 0.0562502 4.05843 0.155966L0.159623 5.63011C-0.221481 6.16705 0.122668 6.95455 0.739363 6.95455H16.815C16.9167 6.95455 16.9998 6.8625 16.9998 6.75V5.21591C16.9998 5.10341 16.9167 5.01136 16.815 5.01136Z" fill="white"/>
</svg>
