<svg width="24" height="24" viewBox="0 0 24 24" fill="none" xmlns="http://www.w3.org/2000/svg">
<path d="M24 8.64139C24.0002 8.40452 23.9536 8.16994 23.8627 7.95123C23.7719 7.73252 23.6387 7.534 23.4708 7.36715L16.6358 0.522303C16.2967 0.187614 15.8396 0 15.3634 0C14.8873 0 14.4302 0.187614 14.091 0.522303L7.48132 7.14161C6.27649 6.76949 3.54026 6.30715 0.68018 8.61884C0.481065 8.77645 0.317686 8.97465 0.200879 9.2003C0.0840726 9.42595 0.0165075 9.6739 0.00266501 9.92769C-0.0111774 10.1815 0.029019 10.4353 0.120589 10.6724C0.212159 10.9094 0.353009 11.1243 0.533797 11.3026L5.98372 16.7605L2.11022 20.6283C1.94107 20.7994 1.84617 21.0304 1.84617 21.2711C1.84617 21.5118 1.94107 21.7428 2.11022 21.9138C2.2824 22.0806 2.51254 22.1738 2.75205 22.1738C2.99156 22.1738 3.2217 22.0806 3.39388 21.9138L7.25612 18.0347L12.6835 23.47C13.0215 23.8075 13.4787 23.998 13.9559 24H14.0798C14.3378 23.9795 14.5885 23.9046 14.8156 23.7803C15.0426 23.6559 15.2409 23.4848 15.3972 23.2783C17.6042 20.3351 17.3903 17.9445 16.8836 16.5124L23.4708 9.91564C23.6387 9.74878 23.7719 9.55026 23.8627 9.33155C23.9536 9.11284 24.0002 8.87827 24 8.64139ZM15.172 15.6667C15.0397 15.8029 14.9524 15.9766 14.9222 16.1643C14.892 16.352 14.9202 16.5444 15.0031 16.7154C16.0728 18.8466 14.8004 21.0681 13.9559 22.1958L1.8062 10.0284C3.16868 8.9233 4.47486 8.64139 5.46575 8.64139C6.45665 8.64139 7.25612 8.96841 7.30116 9.00224C7.47191 9.08525 7.66405 9.11355 7.85143 9.08329C8.03882 9.05302 8.21233 8.96566 8.34836 8.83309L15.3634 1.79655L22.1984 8.64139L15.172 15.6667Z" fill="#E7057E"/>
</svg>
