<svg width="33" height="24" viewBox="0 0 33 24" fill="none" xmlns="http://www.w3.org/2000/svg">
<g clip-path="url(#clip0_582_400)">
<path d="M27.5978 12.7035C24.6881 9.80583 20.7473 8.21094 16.5012 8.21094C12.2551 8.21094 8.3142 9.80583 5.40454 12.7035L8.17136 15.4571C10.3433 13.2955 13.2999 12.1037 16.5012 12.1037C19.7024 12.1057 22.659 13.2955 24.831 15.4571L27.5978 12.7035Z" fill="#E7057E"/>
<path d="M33.0088 6.83231C24.0627 -2.07301 8.93909 -2.07301 -0.00708008 6.83231L2.75974 9.58589C10.209 2.17226 22.7927 2.17226 30.242 9.58589L33.0088 6.83231Z" fill="#E7057E"/>
<path d="M16.4979 23.7875C18.6593 23.7875 20.4114 22.0438 20.4114 19.8928C20.4114 17.7418 18.6593 15.998 16.4979 15.998C14.3366 15.998 12.5845 17.7418 12.5845 19.8928C12.5845 22.0438 14.3366 23.7875 16.4979 23.7875Z" fill="#E7057E"/>
</g>
<defs>
<clipPath id="clip0_582_400">
<rect width="33" height="24" fill="white"/>
</clipPath>
</defs>
</svg>
