<svg width="18" height="17" viewBox="0 0 18 17" fill="none" xmlns="http://www.w3.org/2000/svg">
<path fill-rule="evenodd" clip-rule="evenodd" d="M5.28955 0.051C6.24927 0.00927271 6.55527 0 9 0C11.4447 0 11.7507 0.0100454 12.7096 0.051C13.6685 0.0919545 14.3231 0.236455 14.8958 0.445864C15.4955 0.659909 16.0396 0.9945 16.4896 1.42723C16.9478 1.85145 17.3013 2.36455 17.5271 2.93173C17.7496 3.47264 17.9018 4.09082 17.946 4.99491C17.9902 5.90286 18 6.19186 18 8.5C18 10.8089 17.9894 11.0979 17.946 12.0043C17.9026 12.9084 17.7496 13.5266 17.5271 14.0675C17.3013 14.6348 16.9472 15.1487 16.4896 15.5735C16.0396 16.0063 15.4955 16.3401 14.8958 16.5534C14.3231 16.7635 13.6685 16.9073 12.7113 16.949C11.7507 16.9907 11.4447 17 9 17C6.55527 17 6.24927 16.99 5.28955 16.949C4.33227 16.908 3.67773 16.7635 3.105 16.5534C2.50439 16.3401 1.96022 16.0057 1.51036 15.5735C1.05249 15.1491 0.698167 14.6354 0.472091 14.0683C0.250364 13.5274 0.0981818 12.9092 0.054 12.0051C0.00981817 11.0971 0 10.8081 0 8.5C0 6.19109 0.0106364 5.90209 0.054 4.99645C0.0973636 4.09082 0.250364 3.47264 0.472091 2.93173C0.6985 2.36461 1.0531 1.85092 1.51118 1.42645C1.9604 0.994115 2.50402 0.659479 3.10418 0.445864C3.67691 0.236455 4.33145 0.0927273 5.28873 0.051H5.28955ZM12.6368 1.581C11.6877 1.54005 11.403 1.53155 9 1.53155C6.597 1.53155 6.31227 1.54005 5.36318 1.581C4.48527 1.61886 4.00909 1.75718 3.69164 1.87386C3.27191 2.02841 2.97164 2.21155 2.65664 2.50905C2.35804 2.7834 2.12824 3.1174 1.98409 3.48655C1.86055 3.78636 1.71409 4.23609 1.674 5.06523C1.63064 5.96159 1.62164 6.2305 1.62164 8.5C1.62164 10.7695 1.63064 11.0384 1.674 11.9348C1.71409 12.7639 1.86055 13.2136 1.98409 13.5135C2.12809 13.882 2.358 14.2166 2.65664 14.491C2.94709 14.773 3.30136 14.9901 3.69164 15.1261C4.00909 15.2428 4.48527 15.3811 5.36318 15.419C6.31227 15.46 6.59618 15.4685 9 15.4685C11.4038 15.4685 11.6877 15.46 12.6368 15.419C13.5147 15.3811 13.9909 15.2428 14.3084 15.1261C14.7281 14.9716 15.0284 14.7885 15.3434 14.491C15.642 14.2166 15.8719 13.882 16.0159 13.5135C16.1395 13.2136 16.2859 12.7639 16.326 11.9348C16.3694 11.0384 16.3784 10.7695 16.3784 8.5C16.3784 6.2305 16.3694 5.96159 16.326 5.06523C16.2859 4.23609 16.1395 3.78636 16.0159 3.48655C15.8523 3.09014 15.6584 2.80655 15.3434 2.50905C15.0528 2.22706 14.6992 2.01003 14.3084 1.87386C13.9909 1.75718 13.5147 1.61886 12.6368 1.581ZM7.85045 11.1203C8.49245 11.3727 9.20731 11.4068 9.87294 11.2167C10.5386 11.0266 11.1137 10.6242 11.5 10.0781C11.8864 9.53203 12.06 8.87622 11.9913 8.22267C11.9226 7.56913 11.6157 6.95839 11.1232 6.49477C10.8092 6.19841 10.4295 5.97149 10.0115 5.83034C9.59355 5.68919 9.14762 5.63732 8.70586 5.67848C8.2641 5.71963 7.83749 5.85277 7.45675 6.06833C7.07601 6.28388 6.75061 6.57648 6.50397 6.92507C6.25734 7.27365 6.09561 7.66954 6.03042 8.08424C5.96524 8.49894 5.99821 8.92214 6.12699 9.32335C6.25576 9.72457 6.47712 10.0938 6.77514 10.4046C7.07315 10.7153 7.4404 10.9597 7.85045 11.1203ZM5.72891 5.41064C6.15847 5.00494 6.66844 4.68312 7.2297 4.46355C7.79095 4.24399 8.3925 4.13098 9 4.13098C9.6075 4.13098 10.209 4.24399 10.7703 4.46355C11.3316 4.68312 11.8415 5.00494 12.2711 5.41064C12.7007 5.81634 13.0414 6.29797 13.2739 6.82805C13.5064 7.35812 13.626 7.92625 13.626 8.5C13.626 9.07375 13.5064 9.64188 13.2739 10.172C13.0414 10.702 12.7007 11.1837 12.2711 11.5894C11.4035 12.4087 10.2269 12.869 9 12.869C7.7731 12.869 6.59646 12.4087 5.72891 11.5894C4.86136 10.77 4.37398 9.65874 4.37398 8.5C4.37398 7.34126 4.86136 6.22999 5.72891 5.41064ZM14.652 4.78164C14.7584 4.6868 14.8437 4.57275 14.9026 4.44625C14.9616 4.31975 14.993 4.18337 14.9952 4.04517C14.9973 3.90698 14.97 3.76979 14.915 3.64172C14.86 3.51365 14.7784 3.3973 14.6749 3.29958C14.5714 3.20185 14.4482 3.12472 14.3126 3.07276C14.177 3.02081 14.0317 2.99507 13.8854 2.99709C13.7391 2.9991 13.5947 3.02882 13.4607 3.08449C13.3268 3.14016 13.2061 3.22065 13.1056 3.32118C12.9103 3.5167 12.8034 3.77641 12.8076 4.04517C12.8117 4.31393 12.9266 4.57059 13.1279 4.76065C13.3291 4.95071 13.6008 5.05922 13.8854 5.06314C14.17 5.06706 14.445 4.96608 14.652 4.78164Z" fill="white"/>
</svg>
