<svg width="25" height="25" viewBox="0 0 25 25" fill="none" xmlns="http://www.w3.org/2000/svg">
<path d="M2.00392 11.4903C1.99139 11.3377 2.00899 11.184 2.05562 11.039C2.10226 10.894 2.17689 10.7608 2.2748 10.6479C2.3727 10.5349 2.49174 10.4448 2.62435 10.3831C2.75697 10.3214 2.90026 10.2895 3.04515 10.2895H5.04136C5.31862 10.2895 5.58452 10.4059 5.78057 10.6132C5.97663 10.8205 6.08677 11.1016 6.08677 11.3947V21.8947C6.08677 22.1879 5.97663 22.469 5.78057 22.6763C5.58452 22.8836 5.31862 23 5.04136 23H3.90918C3.64753 23.0001 3.39536 22.8964 3.20249 22.7095C3.00962 22.5225 2.89006 22.2659 2.86743 21.9903L2.00392 11.4903ZM9.223 11.0493C9.223 10.5873 9.4948 10.174 9.88945 9.97723C10.7514 9.54729 12.2197 8.68352 12.8819 7.51581C13.7355 6.01044 13.8965 3.29094 13.9226 2.66813C13.9263 2.58081 13.9242 2.4935 13.9352 2.40729C14.0768 1.328 16.0469 2.58855 16.8022 3.9215C17.2125 4.64434 17.2648 5.59431 17.222 6.3365C17.1754 7.13008 16.9554 7.89658 16.7395 8.6581L16.2795 10.2812H21.9545C22.116 10.2812 22.2754 10.3207 22.42 10.3968C22.5646 10.4728 22.6906 10.5832 22.7881 10.7194C22.8856 10.8555 22.9519 11.0137 22.9819 11.1815C23.0118 11.3493 23.0046 11.5222 22.9607 11.6865L20.1538 22.1954C20.0918 22.4271 19.96 22.6312 19.7782 22.7764C19.5965 22.9217 19.3749 23.0002 19.1471 23H10.2684C9.99115 23 9.72524 22.8836 9.52919 22.6763C9.33314 22.469 9.223 22.1879 9.223 21.8947V11.0493Z" stroke="#901918" stroke-width="2.21053" stroke-linecap="round" stroke-linejoin="round"/>
</svg>
