<svg width="27" height="17" viewBox="0 0 27 17" fill="none" xmlns="http://www.w3.org/2000/svg">
<g clip-path="url(#clip0_45_107)">
<path d="M9.83984 1.82019H17.133V15.2036H9.83984V1.82019Z" fill="#FF5F00"/>
<path d="M10.3031 8.51241C10.3031 5.79321 11.5534 3.38131 13.475 1.82066C12.0628 0.685698 10.28 0 8.33519 0C3.72758 0 0 3.80688 0 8.51241C0 13.2178 3.72758 17.0248 8.33509 17.0248C10.2799 17.0248 12.0627 16.3391 13.475 15.204C11.5534 13.6671 10.3031 11.2316 10.3031 8.51241Z" fill="#EB001B"/>
<path d="M26.9731 8.51241C26.9731 13.2178 23.2455 17.0248 18.638 17.0248C16.6931 17.0248 14.9104 16.3391 13.498 15.204C15.4429 13.6435 16.67 11.2316 16.67 8.51241C16.67 5.79321 15.4197 3.38131 13.498 1.82066C14.9103 0.685698 16.6931 0 18.638 0C23.2455 0 26.9732 3.83058 26.9732 8.51241H26.9731Z" fill="#F79E1B"/>
</g>
<defs>
<clipPath id="clip0_45_107">
<rect width="27" height="17" fill="white"/>
</clipPath>
</defs>
</svg>
