<svg width="17" height="17" viewBox="0 0 17 17" fill="none" xmlns="http://www.w3.org/2000/svg">
<path d="M0 8.5C0 12.1288 2.27446 15.227 5.47542 16.4461C5.3975 15.7824 5.31462 14.688 5.49312 13.9202C5.64683 13.26 6.4855 9.71408 6.4855 9.71408C6.4855 9.71408 6.23262 9.20762 6.23262 8.4575C6.23262 7.28167 6.91404 6.40333 7.76333 6.40333C8.48583 6.40333 8.83433 6.94521 8.83433 7.59475C8.83433 8.32079 8.37179 9.40596 8.13308 10.4125C7.93404 11.2547 8.55596 11.9418 9.38612 11.9418C10.8899 11.9418 12.0466 10.3558 12.0466 8.0665C12.0466 6.03996 10.5903 4.624 8.51133 4.624C6.10442 4.624 4.69129 6.42954 4.69129 8.296C4.69129 9.02346 4.97108 9.80262 5.321 10.2269C5.35083 10.259 5.37191 10.2981 5.38221 10.3407C5.39251 10.3833 5.39167 10.4277 5.37979 10.4699C5.31533 10.7376 5.17225 11.3121 5.14462 11.4297C5.10708 11.5841 5.02208 11.6174 4.86129 11.5423C3.80446 11.0507 3.14429 9.50583 3.14429 8.26483C3.14429 5.59513 5.083 3.14429 8.73446 3.14429C11.6698 3.14429 13.9513 5.236 13.9513 8.03108C13.9513 10.9473 12.1132 13.2947 9.56037 13.2947C8.70258 13.2947 7.89721 12.8485 7.62096 12.3222C7.62096 12.3222 7.19667 13.9386 7.09396 14.3338C6.89421 15.1017 6.34029 16.0735 5.99675 16.6253C6.78867 16.869 7.62875 17 8.5 17C13.1941 17 17 13.1941 17 8.5C17 3.80588 13.1941 0 8.5 0C3.80588 0 0 3.80588 0 8.5Z" fill="white"/>
</svg>
