<svg width="25" height="26" viewBox="0 0 25 26" fill="none" xmlns="http://www.w3.org/2000/svg">
<g clip-path="url(#clip0_345_295)">
<path d="M12.5 0L0 3.71429V14.8571C0 21.0118 5.5957 26 12.5 26C19.4043 26 25 21.0118 25 14.8571V3.71429L12.5 0ZM22.6562 14.8571C22.6562 19.8569 18.1087 23.9107 12.5 23.9107C6.89128 23.9107 2.34375 19.8569 2.34375 14.8571V5.28125L12.5 2.08929L22.6562 5.28125V14.8571Z" fill="#898989"/>
<path d="M5.71176 17.2527H19.2881V18.087H5.71176V17.2527ZM18.1479 9.12339C17.4864 8.95355 16.7831 8.9656 16.1678 9.15728L16.1425 9.1651L14.3012 9.97169L8.92779 8.00273C8.69322 7.91586 8.4369 7.89146 8.18801 7.9323C7.93913 7.97315 7.7077 8.0776 7.52007 8.23375L6.8007 8.82808C6.72481 8.89079 6.66521 8.96845 6.62634 9.05529C6.58746 9.14213 6.5703 9.23592 6.57613 9.32971C6.58195 9.4235 6.61062 9.51487 6.66 9.59705C6.70938 9.67924 6.7782 9.75011 6.86137 9.80443L10.1923 11.9801L8.91461 12.597L7.90275 11.7449C7.70929 11.5823 7.469 11.4746 7.21075 11.4348C6.9525 11.3951 6.68729 11.4249 6.44698 11.5207L5.89671 11.7406C5.81071 11.7749 5.73335 11.8253 5.66952 11.8886C5.60569 11.9518 5.55677 12.0266 5.52583 12.1082C5.4949 12.1897 5.48262 12.2763 5.48978 12.3624C5.49694 12.4486 5.52338 12.5324 5.56743 12.6087L7.6271 16.1757L18.844 11.0798C19.5157 10.7884 19.5975 10.3226 19.4498 9.98334C19.2861 9.60721 18.8115 9.29378 18.1479 9.12339ZM18.4562 10.326L18.452 10.3279L8.01391 15.0699L6.4816 12.416L6.80686 12.286C6.88697 12.2541 6.97538 12.2441 7.06146 12.2574C7.14755 12.2707 7.22765 12.3065 7.29213 12.3608L8.7724 13.6074L11.9212 12.0871L7.6159 9.27486L8.12419 8.85493C8.18673 8.80289 8.26388 8.76807 8.34683 8.75446C8.42979 8.74084 8.51523 8.74897 8.59342 8.77792L14.3335 10.8812L16.4816 9.94025C16.9188 9.80967 17.4394 9.8056 17.9146 9.92948C18.3058 10.0315 18.5137 10.1797 18.5841 10.2575C18.5443 10.2846 18.5014 10.3075 18.4562 10.326Z" fill="#898989"/>
</g>
<defs>
<clipPath id="clip0_345_295">
<rect width="25" height="26" fill="white"/>
</clipPath>
</defs>
</svg>
