<svg width="39" height="13" viewBox="0 0 39 13" fill="none" xmlns="http://www.w3.org/2000/svg">
<path d="M20.1699 4.14054C20.1476 5.94425 21.7334 6.95074 22.9279 7.54921C24.1552 8.16318 24.5674 8.55694 24.5625 9.10607C24.5534 9.94638 23.5836 10.3173 22.6761 10.3317C21.0928 10.3569 20.1721 9.89218 19.4403 9.54071L18.8699 12.2847C19.6042 12.6325 20.9639 12.9359 22.3738 12.9492C25.6835 12.9492 27.8487 11.2696 27.8605 8.66533C27.8734 5.36019 23.4139 5.17725 23.4443 3.69995C23.4548 3.252 23.8706 2.77398 24.7816 2.65244C25.2325 2.59104 26.4773 2.54405 27.8887 3.21222L28.4426 0.5574C27.6836 0.273279 26.7081 0.0012188 25.4937 0.0012188C22.3785 0.0012188 20.1875 1.70375 20.1699 4.14054ZM33.7652 0.229894C33.1608 0.229894 32.6515 0.592327 32.4242 1.14851L27.6966 12.7542H31.0038L31.6619 10.8843H35.7033L36.0851 12.7542H39L36.4563 0.229894H33.7652ZM34.2278 3.61318L35.1823 8.31621H32.5684L34.2278 3.61318ZM16.16 0.23005L13.5531 12.7541H16.7046L19.3103 0.229736H16.16V0.23005ZM11.4978 0.229736L8.21757 8.75445L6.89066 1.50624C6.73496 0.69711 6.12011 0.229894 5.4373 0.229894H0.0751055L0 0.59358C1.10084 0.83917 2.35158 1.23528 3.10934 1.65911C3.57307 1.91801 3.7053 2.14434 3.85765 2.75957L6.37086 12.7542H9.70125L14.8072 0.229894H11.4978" fill="url(#paint0_linear_45_113)"/>
<defs>
<linearGradient id="paint0_linear_45_113" x1="17.9299" y1="13.209" x2="18.3152" y2="-0.0882282" gradientUnits="userSpaceOnUse">
<stop stop-color="#222357"/>
<stop offset="1" stop-color="#254AA5"/>
</linearGradient>
</defs>
</svg>
